<svg xmlns="http://www.w3.org/2000/svg" xmlns:xlink="http://www.w3.org/1999/xlink" viewBox="0 0 235.67 523.59"><defs><style>.cls-1{fill:#fefefe;}.cls-2{fill:#0e0f24;}.cls-3{fill:#3e2f5a;}.cls-4{fill:#647083;}.cls-5{fill:#101026;}.cls-6{fill:#3e305a;}.cls-121,.cls-7{fill:#8753dd;}.cls-8{fill:#40315c;}.cls-9{fill:#d2e2f0;}.cls-10{fill:#9ea8b6;}.cls-11{fill:#a0abb8;}.cls-12{fill:#7f8b9b;}.cls-13{fill:#b0c3d3;}.cls-14{fill:#9ea3ad;}.cls-15{fill:#8c96a5;}.cls-16{fill:#9aa6bd;}.cls-17{fill:#96a4b8;}.cls-18{fill:#9ca9bd;}.cls-19{fill:#98a3bb;}.cls-20{fill:#a3b5c8;}.cls-21{fill:#a2b2c6;}.cls-22{fill:#a3b3c7;}.cls-23{fill:#9eaac2;}.cls-24{fill:#a0adc4;}.cls-25{fill:#92a3b6;}.cls-26{fill:#aab9ce;}.cls-27{fill:#b0c0d0;}.cls-28{fill:#a7b4cb;}.cls-29{fill:#a2b1c6;}.cls-30{fill:#969db6;}.cls-31{fill:#989eb8;}.cls-32{fill:#93a5b7;}.cls-33{fill:#8495a6;}.cls-34{fill:#abbcd2;}.cls-35{fill:#b2c1d6;}.cls-36{fill:#aabcd0;}.cls-37{fill:#a8bbce;}.cls-38{fill:#a3b7c9;}.cls-39{fill:#afc0d2;}.cls-40{fill:#bcccdd;}.cls-41{fill:#c1daec;}.cls-42{fill:#c7e0f1;}.cls-43{fill:#acc0d2;}.cls-44{fill:#a2b6c7;}.cls-45{fill:#111127;}.cls-46{fill:#121228;}.cls-47{fill:#1d1935;}.cls-48{fill:#272040;}.cls-49{fill:#3b2d56;}.cls-50{fill:#16142d;}.cls-51{fill:#251e3e;}.cls-52{fill:#14132b;}.cls-53{fill:#17152e;}.cls-54{fill:#131229;}.cls-55{fill:#15142c;}.cls-56{fill:#1c1834;}.cls-57{fill:#191630;}.cls-58{fill:#211c39;}.cls-59{fill:#201b38;}.cls-60{fill:#18162f;}.cls-61{fill:#1a1732;}.cls-62{fill:#1e1a36;}.cls-63{fill:#1a1731;}.cls-64{fill:#33284e;}.cls-65{fill:#231d3b;}.cls-66{fill:#1f1a37;}.cls-67{fill:#362a51;}.cls-68{fill:#261f3f;}.cls-69{fill:#3e2f59;}.cls-70{fill:#392c54;}.cls-71{fill:#231d3c;}.cls-72{fill:#13132a;}.cls-73{fill:#241e3d;}.cls-74{fill:#221c3a;}.cls-75{fill:#30264a;}.cls-76{fill:#1b1833;}.cls-77{fill:#2c2345;}.cls-78{fill:#352950;}.cls-79{fill:#2a2143;}.cls-80{fill:#32274c;}.cls-81{fill:#382b53;}.cls-82{fill:#2e2448;}.cls-83{fill:#2f2549;}.cls-84{fill:#2d2446;}.cls-85{fill:#2b2244;}.cls-86{fill:#292142;}.cls-87{fill:#9ea9c3;}.cls-88{fill:#667186;}.cls-89{fill:#6a748b;}.cls-90{fill:#687288;}.cls-91{fill:#6c758d;}.cls-92{fill:#6e768f;}.cls-93{fill:#797e9c;}.cls-94{fill:#707791;}.cls-95{fill:#777c99;}.cls-96{fill:#647084;}.cls-97{fill:#727993;}.cls-98{fill:#747b96;}.cls-99{fill:#7d81a0;}.cls-100{fill:#677385;}.cls-101{fill:#8e99a9;}.cls-102{fill:#828d9e;}.cls-103{fill:#101126;}.cls-104{fill:#121329;}.cls-105{fill:#3c2d57;}.cls-106{fill:#282141;}.cls-107{fill:#34284e;}.cls-108{fill:#2e2447;}.cls-109{fill:#33284d;}.cls-110{fill:#a7b7ce;}.cls-111{fill:#463862;}.cls-112{fill:#463661;}.cls-113{fill:#a6b5cc;}.cls-114{fill:#43345f;}.cls-115{fill:#95a3b9;}.cls-116,.cls-117,.cls-118,.cls-120,.cls-121{stroke:#6d798f;stroke-miterlimit:10;}.cls-116{fill:url(#linear-gradient);}.cls-117{fill:url(#linear-gradient-2);}.cls-118,.cls-120{fill:none;}.cls-119{fill:#6d798f;}.cls-120{stroke-width:0.25px;}.cls-122{fill:#cee9fa;}</style><linearGradient id="linear-gradient" x1="577.78" y1="194.79" x2="577.78" y2="563.33" gradientUnits="userSpaceOnUse"><stop offset="0" stop-color="#43345f"/><stop offset="0.75" stop-color="#0e0f24"/></linearGradient><linearGradient id="linear-gradient-2" x1="468.78" y1="194.79" x2="468.78" y2="563.33" gradientTransform="matrix(-1, 0, 0, 1, 1259.57, 0)" xlink:href="#linear-gradient"/></defs><title>aboutNoText3</title><g id="Layer_1" data-name="Layer 1"><path class="cls-1" d="M641.62,607.1a30.77,30.77,0,0,0-3.48-.09c-1.61,0-3.23,0-4.86,0A45,45,0,0,0,641.62,607.1Z" transform="translate(-566.45 -122.13)"/><path class="cls-1" d="M599.83,565.4c-1.13-.48-2.55-.29-3.83-.4h-8.53l.06.34a37.33,37.33,0,0,1,5.63.32c.16,0,.68.18,1.22.34h.08c2.28,0,4.6.74,6.84,1.11a3.17,3.17,0,0,1,2.1,1.42l.49.19a17.92,17.92,0,0,1,9.71,9.54C611.12,572,606.11,568.07,599.83,565.4Z" transform="translate(-566.45 -122.13)"/><path class="cls-1" d="M622.54,598.88c-3.13-2.2-5.71-5.18-8.62-7.89.69-1,2-2.08,2-3.09a26.36,26.36,0,0,0-1-5.4c0,.27.1.54.14.81a4.44,4.44,0,0,1,.22,1.11l.19,2.27a4.26,4.26,0,0,1-2,4.23,24.78,24.78,0,0,0,5.19,5.24c2.46,1.84,4.83,3.28,7,5.49a28.16,28.16,0,0,0,4.77,4.3C627.85,603.55,625.48,600.95,622.54,598.88Z" transform="translate(-566.45 -122.13)"/><path class="cls-1" d="M607.31,156.06l-.27,0c0,4.81.14,9.4-1.24,14.34A35.36,35.36,0,0,1,599,184c-6.75,8-18.13,11.15-28.4,10.55a3.92,3.92,0,0,1-.87.06,12.79,12.79,0,0,1-2.22-.26l-.05.41a4.64,4.64,0,0,1,1.21.43L569,195c2.16,0,4.34.17,6.49,0,10.36-.94,19.38-4.88,26-13.08,2.77-3.45,4.16-7.86,5.62-12.12,1.14-3.35.88-6.71.94-10.09.05-2.77.26-3.47,2.24-3.62Z" transform="translate(-566.45 -122.13)"/><path class="cls-1" d="M661.71,161.8a10.58,10.58,0,0,1-.52-3.86,3.83,3.83,0,0,1,.1-.65,3.63,3.63,0,0,1,0-1.41c-6.14-.36-12.48,0-18.63.12H661A9.73,9.73,0,0,0,661.71,161.8Z" transform="translate(-566.45 -122.13)"/><path class="cls-1" d="M674.06,173.29a4.53,4.53,0,0,1-2-1.41c-2.48-1-4.87-1.85-6.89-4.2q-.43-.5-.83-1c1.58,2.65,4.31,4.67,7,6.3a16,16,0,0,0,8.63,2h5.91c0-.08-.07-.17-.1-.25A27,27,0,0,1,674.06,173.29Z" transform="translate(-566.45 -122.13)"/><path class="cls-1" d="M726.89,156c-3.13,0-6.26,0-9.39-.1-1.28,0-2.62,0-4,.1Z" transform="translate(-566.45 -122.13)"/><path class="cls-1" d="M765.25,175.91c-2.53-5.69-4.27-13-3.87-19.23,0-.21,0-.42.07-.62a6.94,6.94,0,0,1-1.94-.46l-.13-.07c-3.75-.08-7.73.34-11.43.4L742,156h12.22c.83,0,1.66,0,2.49,0,2.52.09,3.17.7,3.28,3.07.45,10.13,1.32,13.31,6,21.92.61.11,1.4,0,1.78.35l1.24,1.13A34.87,34.87,0,0,1,765.25,175.91Z" transform="translate(-566.45 -122.13)"/><path class="cls-1" d="M780,191.38a3.06,3.06,0,0,0,0,.62l3.1.62C782.06,192.25,781,191.84,780,191.38Z" transform="translate(-566.45 -122.13)"/><path class="cls-1" d="M763.17,569.28a19.64,19.64,0,0,1,9.35-3.35c2.65-.27,6.11.24,8.68-.52,0,0,0-.09,0-.13s.09-.28.13-.42c-1.31.05-2.63.11-4,.14s-2.92,0-4.38,0a15.66,15.66,0,0,0-12,5,3.44,3.44,0,0,1-.16,1.36l.35-.24,0-.05c.28-.27.55-.5.83-.73A4.22,4.22,0,0,1,763.17,569.28Z" transform="translate(-566.45 -122.13)"/><path class="cls-1" d="M753,589a4.66,4.66,0,0,1,0-2.44,2.6,2.6,0,0,1,0-1.12c0-.16.08-.31.13-.47l-.13,0a5.72,5.72,0,0,1-.92,3.49c.47.54,1,1.05,1.39,1.6A5.32,5.32,0,0,1,753,589Z" transform="translate(-566.45 -122.13)"/><path class="cls-1" d="M750,595l-13.76,11.9c-.2.05-.41.07-.61.11h1.47a4.37,4.37,0,0,1,.47-.41,20.78,20.78,0,0,0,2-1.62,4.26,4.26,0,0,1,1.34-.87c2.22-2,4.14-4.48,6.45-6.32,1-.76,1.88-1.53,2.81-2.3Z" transform="translate(-566.45 -122.13)"/><path class="cls-1" d="M782.21,561.46a2.34,2.34,0,0,1,.7-1.14,6.59,6.59,0,0,1,.3-1.32H782v3.67A8.4,8.4,0,0,1,782.21,561.46Z" transform="translate(-566.45 -122.13)"/><path class="cls-2" d="M792.66,195c-2.72.17-5.08-1.18-7.66-1.56a.69.69,0,0,1,0-.23l-.33-.08-1.57-.54L780,192l-3-2c-2.3.21-3.6-1.72-5.1-2.81-2.27-1.65-4-4.09-5.9-6.19-4.68-8.61-5.55-11.8-6-21.92-.1-2.37-.75-3-3.28-3.07-.83,0-1.66,0-2.49,0H742c-3.06,0-6.12,0-9.18,0l-6,0H713.53a38,38,0,0,1-3.91,0h-.91c.19,1.69-.62,3.28-1.36,5.06-1.32,3.14-2.23,6.46-4,9.4-2.48,4.11-7.69,7.11-12.29,5.32a7.39,7.39,0,0,1-3,.55,2.7,2.7,0,0,1-1.25-.37c-2,.07-4,.07-6.06,0-.27,0-.52-.62-.78-1a16,16,0,0,1-8.63-2c-2.73-1.63-5.47-3.65-7-6.3a16.37,16.37,0,0,1-2.62-4.86A9.73,9.73,0,0,1,661,156H642.63c-1.58,0-3.16.06-4.71,0-9.23-.06-18.45,0-27.68,0-2,.16-2.18.85-2.24,3.62-.07,3.38.2,6.74-.94,10.09-1.45,4.26-2.85,8.67-5.62,12.12-6.58,8.2-15.59,12.15-26,13.08-2.15.19-4.32,0-6.49,0v.34a4.33,4.33,0,0,1,.78.66H570c.76.15,1.91-.5,2,1l1,1h1l3,3c.76.15,1.91-.5,2,1l3,3c1.5.09.85,1.24,1,2l1,1v1c1.5.09.85,1.24,1,2,1.93.47.62,2,1,3,.33.26.94.51,1,.79.1,1.49,0,3,0,4.49V562.93c.1.35.19.71.27,1.07,2.66,0,5.05,0,7.44,0,.44,0,.86.62,1.29,1,1.28.12,2.7-.08,3.83.4,6.28,2.67,11.29,6.59,13.78,12.85a19.88,19.88,0,0,1,1.28,4.24,26.36,26.36,0,0,1,1,5.4c0,1-1.27,2.07-2,3.09,2.91,2.71,5.49,5.69,8.62,7.89,2.94,2.07,5.32,4.68,7.87,7.06a6.71,6.71,0,0,0,1.59.76,10.75,10.75,0,0,0,1.28.3c1.63,0,3.25,0,4.86,0a30.77,30.77,0,0,1,3.48.09c.53,0,1.06,0,1.55,0a4.4,4.4,0,0,1,.69.08c3.66,0,7.25-.3,10.89.26a2.48,2.48,0,0,1,.32.09h0a2.47,2.47,0,0,1,2.91,1.41,2.29,2.29,0,0,1,.3.29l.13.09.39.27a6.58,6.58,0,0,1,2.18,2.25,2.73,2.73,0,0,1,.27,1,2.54,2.54,0,0,1,.9,1.72c.35,3.21,1.32,4.21,3.86,5.87,1,.66,2.09,1.28,3,2,1.35,1.07,2,2,3.45,2.59h7l3.92-5.08c2.89.61,3.22,3.26,4.92,5.08H696a26.5,26.5,0,0,0,2.37-1.22c.6-.46,1.17-.93,1.69-1.35.68-.55,2.71-1.89,4.2-3.17.51-.5,1-1,1.5-1.56l.07-.12a6.39,6.39,0,0,1,.44-2.22,2.32,2.32,0,0,1,.4-1.29l.09-.13a2.4,2.4,0,0,1,.27-1.31.68.68,0,0,1,.27-.42s.06-.1.1-.14l.58-.67a2.09,2.09,0,0,1,.24-.23,11.86,11.86,0,0,1,6.61-3.91c3.42-.64,6.94-.32,10.41-.2a3.1,3.1,0,0,1,1.8-.38c2.86.29,5.72.33,8.59.34.2,0,.41-.05.61-.11L750,595l3-3a7.69,7.69,0,0,0,.94-1.17,5.32,5.32,0,0,1-.48-.75c-.43-.55-.92-1.06-1.39-1.6A5.72,5.72,0,0,0,753,585c-.45-4.32,1.45-7.78,4-11l1-1c.21-2.24.76-2.79,3-3a15.66,15.66,0,0,1,12-5c.42-.33.83-.93,1.28-1,1.81-.11,3.63,0,5.44-.09.44,0,.85-.62,1.28-1V219.29c0-1.5-.05-3,0-4.49,0-.28.62-.53,1-.79v-2l2-3v-1l1-1c.15-.76-.5-1.91,1-2l5-5h1l2-2h1l1-1h1l1-1h1v-1C796.89,195,794.77,194.89,792.66,195Z" transform="translate(-566.45 -122.13)"/><path class="cls-3" d="M795.34,206.25l0,0-2,3-.53-3.18H787l-1,1c-.15.76.5,1.91-1,2l-1,1c-.15.76.5,1.91-1,2v3h9.83A23.09,23.09,0,0,1,795.34,206.25Z" transform="translate(-566.45 -122.13)"/><path class="cls-4" d="M587,214.79c0-.28-.62-.53-1-.79V476c0,3.92,0,7.83,0,11.75,0,.42-.62.83-1,1.25v1c.33.26,1,.52,1,.79q.09,6.21,0,12.43c0,.27-.62.52-1,.79v36l1,1.24-1,.76v2c.33.39.88.75,1,1.18a17.81,17.81,0,0,1,0,2.82v3c-.38,1,.93,2.53-1,3v3l-.25.25.66,1a2.08,2.08,0,0,1,.34,1.15l.4.31v.88a18.36,18.36,0,0,1,.85,2.35V219.29C587,217.79,587.05,216.29,587,214.79Z" transform="translate(-566.45 -122.13)"/><path class="cls-4" d="M587.42,564.69l.05.15h0l0,.16H596c-.43-.33-.85-.94-1.29-1-2.39-.09-4.78,0-7.44,0C587.32,564.23,587.38,564.45,587.42,564.69Z" transform="translate(-566.45 -122.13)"/><path class="cls-4" d="M781,562V219.29c0-1.5-.05-3,0-4.49,0-.28.62-.53,1-.79V476c0,3.92,0,7.83,0,11.75,0,.42.62.83,1,1.25v1c-.33.26-1,.52-1,.79q-.09,6.21,0,12.43c0,.27.62.52,1,.79v36l-1,.76,1,1.24v2c-.33.39-.88.75-1,1.18a17.81,17.81,0,0,0,0,2.82v6l1,1v1c-1.5.09-.85,1.24-1,2v4Z" transform="translate(-566.45 -122.13)"/><path class="cls-5" d="M791,545.42c.44-8.14.95-16.27,1.12-24.42H783v19a2.85,2.85,0,0,1,1,0,3.74,3.74,0,0,1,.85.65,4.68,4.68,0,0,1-.85.31,5.83,5.83,0,0,1-1,0v16h1v-1l1-1,.29-.29,0,0a18.27,18.27,0,0,1,1.68-3.57c0-.51.06-1,.83-1.06l.1-.11.08-.07a1.47,1.47,0,0,0-.22-.85,1.86,1.86,0,0,1-.68-.59c.21-.06.56-.23.61-.17a2.78,2.78,0,0,1,.3.76h.56a13.35,13.35,0,0,1,2.19-3.32ZM789.5,541a3.12,3.12,0,0,1-.31-.67c0-.08.2-.22.31-.33l.36.64Z" transform="translate(-566.45 -122.13)"/><path class="cls-6" d="M572.78,519.85c.08,1.56.16,3.12.22,4.68v-6.25l-.12,1.1A3.21,3.21,0,0,1,572.78,519.85Z" transform="translate(-566.45 -122.13)"/><path class="cls-6" d="M572.84,495.29a65.51,65.51,0,0,0,.16,10.95V494.64C573,494.86,572.89,495.07,572.84,495.29Z" transform="translate(-566.45 -122.13)"/><path class="cls-6" d="M573,538.64v-4.93a4.43,4.43,0,0,1-.22.49,1.92,1.92,0,0,1-.2.28A40.43,40.43,0,0,0,573,538.64Z" transform="translate(-566.45 -122.13)"/><path class="cls-5" d="M585,540V521H573v3.53c.06,1.51.11,3,.13,4.53a2.57,2.57,0,0,1-.12.81v1.24a3.6,3.6,0,0,1,0,2.6v4.93c0,.09,0,.17,0,.26a3.43,3.43,0,0,1,0,1.11c1,.26,1.12.85,1,1.49a52.61,52.61,0,0,1,4.92,6c.32-.3.7-.5,1.35.16.84.84.28,1.23-.11,1.61a26.44,26.44,0,0,1,3.62,6,.94.94,0,0,1,.17.61l0,.2q.25.44.53.87H585V541a2.85,2.85,0,0,1-1,0,3.74,3.74,0,0,1-.85-.65A4.68,4.68,0,0,1,584,540,5.83,5.83,0,0,1,585,540Zm-6.94.12.65-.09.37,1.91A2.33,2.33,0,0,1,578.06,540.12Zm1.54,2.77a4.6,4.6,0,0,1-.6-.44l0,0C579.73,542.78,579.63,542.91,579.6,542.89Zm-.29-.75.14-.14.47.58C579.69,542.42,579.49,542.28,579.31,542.14Z" transform="translate(-566.45 -122.13)"/><path class="cls-7" d="M686.89,628a2.13,2.13,0,0,1,1.66-2.23,3.74,3.74,0,0,1,2-.46l.73,0c1.44-.12,2.89-.14,4.35-.13h0A3.82,3.82,0,0,1,696,625h-7.66c-1.69-1.82-2-4.47-4.92-5.08L679.51,625h-7a5.86,5.86,0,0,0,1.22.33c2,.32,4.11-.18,6.17,0a2.56,2.56,0,0,1,1.33.5,13.38,13.38,0,0,1,5.61,2.32Z" transform="translate(-566.45 -122.13)"/><path class="cls-3" d="M584,211v-1l-1-1c-1.5-.09-.85-1.24-1-2l-1-1v-1h-1c-3.09.05-4,.07-4.7,1.56l.07.15A46,46,0,0,1,578.1,220H585v-4C585,214.27,585.31,212.47,584,211Z" transform="translate(-566.45 -122.13)"/><path class="cls-8" d="M793.32,209.18l2-3,0,0c.23-.42.47-.83.74-1.24a27.62,27.62,0,0,1,1.08-4.35,25.43,25.43,0,0,1,1.61-3.67H798l-2,2h-1l-1,1h-1l-3,3h-1l-2,2v1h5.79Zm.18-5.18a3.11,3.11,0,0,1,.31.67c0,.08-.2.22-.31.33a3.12,3.12,0,0,1-.31-.67C793.17,204.25,793.39,204.11,793.5,204Z" transform="translate(-566.45 -122.13)"/><path class="cls-8" d="M572.54,201.93a16.32,16.32,0,0,1,1.67,2.36c0-.08.2-.19.3-.29l.36.64-.3.3a17.63,17.63,0,0,1,.75,1.61c.73-1.48,1.6-1.5,4.7-1.56l-1-2h-1l-3-3h-1l-1-1h-1l-.94-.94c.33.76.6,1.55.89,2.3C572.15,200.87,572.34,201.4,572.54,201.93Z" transform="translate(-566.45 -122.13)"/><path class="cls-9" d="M800,194.54a2.87,2.87,0,0,1-1.54-.11l-1.62.1a4.14,4.14,0,0,1-3.17-.06c-2.18-.21-4.31-.7-6.52-.78a2.56,2.56,0,0,1-.92-.2,10,10,0,0,1-1.21-.25.69.69,0,0,0,0,.23c2.58.38,4.94,1.73,7.66,1.56,2.11-.14,4.23,0,6.34,0l.7.35.24-.4.3-.47Z" transform="translate(-566.45 -122.13)"/><path class="cls-10" d="M776.36,189.43a28.05,28.05,0,0,1-7.33-7l-1.24-1.13c-.39-.35-1.18-.25-1.78-.35,1.94,2.1,3.63,4.55,5.9,6.19,1.5,1.09,2.8,3,5.1,2.81v-.17Z" transform="translate(-566.45 -122.13)"/><path class="cls-11" d="M753.13,585c0-.18.09-.37.15-.54a13.69,13.69,0,0,1,.23-1.42c.07-3,1.39-5.34,3.17-7.66.37-.48.74-.92,1.12-1.33H757c-2.55,3.22-4.45,6.68-4,11Z" transform="translate(-566.45 -122.13)"/><path class="cls-12" d="M782,563h-1c-.42.33-.83.93-1.28,1-1.81.11-3.63,0-5.44.09-.44,0-.85.62-1.28,1,1.46,0,2.92,0,4.38,0s2.65-.09,4-.14a12.69,12.69,0,0,1,.62-1.72S782,563,782,563Z" transform="translate(-566.45 -122.13)"/><path class="cls-13" d="M685.91,175H680c.26.33.51.95.78,1,2,.07,4,.07,6.06,0A2.47,2.47,0,0,1,685.91,175Z" transform="translate(-566.45 -122.13)"/><path class="cls-14" d="M760.84,571.36A3.44,3.44,0,0,0,761,570c-2.24.21-2.79.76-3,3v.78A18.16,18.16,0,0,1,760.84,571.36Z" transform="translate(-566.45 -122.13)"/><path class="cls-15" d="M752.93,593.22A3,3,0,0,0,753,592l-3,3,.19.48C751.1,594.72,752,594,752.93,593.22Z" transform="translate(-566.45 -122.13)"/><path class="cls-16" d="M585,216c0-1.73.31-3.53-1-5h1c1.93.47.62,2,1,3v2Z" transform="translate(-566.45 -122.13)"/><path class="cls-17" d="M580,205l-1-2v-1l3,3h-2Z" transform="translate(-566.45 -122.13)"/><path class="cls-18" d="M784,210c-.15.76.5,1.91-1,2h-1l2-3Z" transform="translate(-566.45 -122.13)"/><path class="cls-19" d="M789,203l-1,1h-1l2-2Z" transform="translate(-566.45 -122.13)"/><path class="cls-20" d="M585,211h-1v-2C585.5,209.09,584.85,210.24,585,211Z" transform="translate(-566.45 -122.13)"/><path class="cls-21" d="M785,207c.15-.76-.5-1.91,1-2v2Z" transform="translate(-566.45 -122.13)"/><path class="cls-22" d="M582,205c1.5.09.85,1.24,1,2h-1v-2Z" transform="translate(-566.45 -122.13)"/><path class="cls-23" d="M787,204h1l-1,1h-1Z" transform="translate(-566.45 -122.13)"/><path class="cls-24" d="M789,203v-1l1-1v2Z" transform="translate(-566.45 -122.13)"/><path class="cls-25" d="M577,201c.76.15,1.91-.5,2,1h-2Z" transform="translate(-566.45 -122.13)"/><path class="cls-26" d="M790,202v-1l1-1v2Z" transform="translate(-566.45 -122.13)"/><path class="cls-27" d="M793,200l-1,1v-1l1-1Z" transform="translate(-566.45 -122.13)"/><path class="cls-28" d="M793,200v-1l1-1v2Z" transform="translate(-566.45 -122.13)"/><path class="cls-29" d="M575,200h-1v-2l1,1Z" transform="translate(-566.45 -122.13)"/><path class="cls-30" d="M796,199h-1v-1l1-1v2Z" transform="translate(-566.45 -122.13)"/><path class="cls-31" d="M573,199h-1v-2l1,1Z" transform="translate(-566.45 -122.13)"/><path class="cls-32" d="M575,200v-1l1,1v1Z" transform="translate(-566.45 -122.13)"/><path class="cls-33" d="M798,197l-1,1v-1l1-1Z" transform="translate(-566.45 -122.13)"/><path class="cls-34" d="M783,213v1h-1v-1Z" transform="translate(-566.45 -122.13)"/><path class="cls-35" d="M783,213h-1v-1h1Z" transform="translate(-566.45 -122.13)"/><path class="cls-36" d="M784,209v-1h1v1Z" transform="translate(-566.45 -122.13)"/><path class="cls-37" d="M584,208v1h-1v-1Z" transform="translate(-566.45 -122.13)"/><path class="cls-38" d="M785,208h-1l1-1Z" transform="translate(-566.45 -122.13)"/><path class="cls-39" d="M795,198v1h-1v-1Z" transform="translate(-566.45 -122.13)"/><path class="cls-40" d="M573,199v-1h1v1Z" transform="translate(-566.45 -122.13)"/><path class="cls-41" d="M576,201v-1l1,1Z" transform="translate(-566.45 -122.13)"/><path class="cls-42" d="M792,200v1h-1v-1Z" transform="translate(-566.45 -122.13)"/><path class="cls-43" d="M797,197v1h-1v-1Z" transform="translate(-566.45 -122.13)"/><path class="cls-44" d="M584,208h-1v-1Z" transform="translate(-566.45 -122.13)"/><path class="cls-45" d="M792.17,516.5a14.21,14.21,0,0,1,.38-3.24A14.62,14.62,0,0,1,791,507.5q-.1-1.75-.21-3.5H783v17h9.1C792.13,519.5,792.16,518,792.17,516.5Z" transform="translate(-566.45 -122.13)"/><path class="cls-46" d="M790.21,491H783v13h7.79C790.53,499.67,790.26,495.34,790.21,491Z" transform="translate(-566.45 -122.13)"/><path class="cls-47" d="M790.26,385.21c0-1.74,0-3.47-.05-5.21H783v10h7.47C790.37,388.41,790.29,386.81,790.26,385.21Z" transform="translate(-566.45 -122.13)"/><path class="cls-48" d="M788.27,295H783v10h4.8Q788,300,788.27,295Z" transform="translate(-566.45 -122.13)"/><path class="cls-49" d="M792.74,222H783v10h9.45A70.91,70.91,0,0,0,792.74,222Z" transform="translate(-566.45 -122.13)"/><path class="cls-50" d="M790.94,447H783v10h8.32C791.25,453.67,791.11,450.33,790.94,447Z" transform="translate(-566.45 -122.13)"/><path class="cls-51" d="M787.49,312H783v10h4.1C787.14,318.67,787.32,315.33,787.49,312Z" transform="translate(-566.45 -122.13)"/><path class="cls-52" d="M791.32,466H783v10h7.81C791,472.67,791.23,469.34,791.32,466Z" transform="translate(-566.45 -122.13)"/><path class="cls-53" d="M790.4,437H783v10h7.94C790.77,443.67,790.58,440.33,790.4,437Z" transform="translate(-566.45 -122.13)"/><path class="cls-54" d="M790.28,485.36c0-1.12.1-2.24.16-3.36H783v9h7.21C790.19,489.12,790.2,487.24,790.28,485.36Z" transform="translate(-566.45 -122.13)"/><path class="cls-55" d="M791.37,463.59c0-2.2,0-4.39-.05-6.59H783v9h8.32C791.35,465.2,791.37,464.39,791.37,463.59Z" transform="translate(-566.45 -122.13)"/><path class="cls-56" d="M790.47,390H783v9h8.25C790.95,396,790.67,393,790.47,390Z" transform="translate(-566.45 -122.13)"/><path class="cls-57" d="M789.84,420H783v9h7C789.91,426,789.84,423,789.84,420Z" transform="translate(-566.45 -122.13)"/><path class="cls-58" d="M792,351.79a9.2,9.2,0,0,1-1.75-4.17c0-.21-.07-.41-.1-.62H783v9h7.78A13.93,13.93,0,0,1,792,351.79Z" transform="translate(-566.45 -122.13)"/><path class="cls-59" d="M790.67,357.33c0-.45.06-.89.11-1.33H783v9h7.41Q790.53,361.17,790.67,357.33Z" transform="translate(-566.45 -122.13)"/><path class="cls-60" d="M790,429h-7v8h7.4Q790.18,433,790,429Z" transform="translate(-566.45 -122.13)"/><path class="cls-61" d="M792.29,411c-.14-2.35-.33-4.68-.55-7H783v8h8.62A11.32,11.32,0,0,1,792.29,411Z" transform="translate(-566.45 -122.13)"/><path class="cls-62" d="M790.25,372H783v8h7.2Q790.19,376,790.25,372Z" transform="translate(-566.45 -122.13)"/><path class="cls-63" d="M789.83,418.67a12.8,12.8,0,0,1,1.78-6.67H783v8h6.84C789.84,419.56,789.83,419.11,789.83,418.67Z" transform="translate(-566.45 -122.13)"/><path class="cls-64" d="M788.67,258.67c.15-1.56.34-3.12.55-4.67H783v7h5.74A9.59,9.59,0,0,1,788.67,258.67Z" transform="translate(-566.45 -122.13)"/><path class="cls-65" d="M788,334h-5v7h6.18C788.75,338.67,788.32,336.34,788,334Z" transform="translate(-566.45 -122.13)"/><path class="cls-66" d="M790.41,365H783v7h7.25Q790.31,368.5,790.41,365Z" transform="translate(-566.45 -122.13)"/><path class="cls-67" d="M791,243h-8v7h6.81C790.18,247.66,790.58,245.33,791,243Z" transform="translate(-566.45 -122.13)"/><path class="cls-68" d="M787.68,308c0-1,.08-2,.12-3H783v7h4.49C787.56,310.66,787.63,309.31,787.68,308Z" transform="translate(-566.45 -122.13)"/><path class="cls-69" d="M792.73,221.6a43.1,43.1,0,0,1,.1-6.6H783v7h9.74C792.74,221.87,792.74,221.74,792.73,221.6Z" transform="translate(-566.45 -122.13)"/><path class="cls-70" d="M792.45,232H783v7h8.59C791.93,236.67,792.24,234.34,792.45,232Z" transform="translate(-566.45 -122.13)"/><path class="cls-71" d="M787.27,328H783v6h5C787.66,332,787.42,330,787.27,328Z" transform="translate(-566.45 -122.13)"/><path class="cls-72" d="M790.81,476H783v6h7.44C790.55,480,790.68,478,790.81,476Z" transform="translate(-566.45 -122.13)"/><path class="cls-73" d="M787.15,326.1c-.05-1.36-.06-2.73,0-4.1H783v6h4.27C787.22,327.37,787.17,326.73,787.15,326.1Z" transform="translate(-566.45 -122.13)"/><path class="cls-74" d="M789.18,341H783v6h7.2C789.9,345,789.55,343,789.18,341Z" transform="translate(-566.45 -122.13)"/><path class="cls-75" d="M789.17,269.17a13.81,13.81,0,0,1,.63-4.17H783v6h6.14C789.15,270.39,789.16,269.78,789.17,269.17Z" transform="translate(-566.45 -122.13)"/><path class="cls-76" d="M791.25,399H783v5h8.74Q791.5,401.5,791.25,399Z" transform="translate(-566.45 -122.13)"/><path class="cls-77" d="M788.9,281H783v4h5.74Q788.83,283,788.9,281Z" transform="translate(-566.45 -122.13)"/><path class="cls-78" d="M789.81,250H783v4h6.22C789.4,252.66,789.6,251.33,789.81,250Z" transform="translate(-566.45 -122.13)"/><path class="cls-79" d="M788.61,288H783v4h5.41Q788.51,290,788.61,288Z" transform="translate(-566.45 -122.13)"/><path class="cls-80" d="M790,264.55a10.62,10.62,0,0,1-1.22-3.55H783v4h6.8C789.85,264.85,789.91,264.7,790,264.55Z" transform="translate(-566.45 -122.13)"/><path class="cls-81" d="M791.59,239H783v4h8Q791.29,241,791.59,239Z" transform="translate(-566.45 -122.13)"/><path class="cls-82" d="M789.11,274H783v4h6C789,276.67,789.08,275.33,789.11,274Z" transform="translate(-566.45 -122.13)"/><path class="cls-83" d="M789.14,271H783v3h6.11C789.13,273,789.13,272,789.14,271Z" transform="translate(-566.45 -122.13)"/><path class="cls-84" d="M789,278h-6v3h5.9Q789,279.5,789,278Z" transform="translate(-566.45 -122.13)"/><path class="cls-85" d="M788.74,285H783v3h5.61Q788.68,286.5,788.74,285Z" transform="translate(-566.45 -122.13)"/><path class="cls-86" d="M788.41,292H783v3h5.27Q788.34,293.5,788.41,292Z" transform="translate(-566.45 -122.13)"/><path class="cls-8" d="M785,208v-1h1c-.15.76.5,1.91-1,2Z" transform="translate(-566.45 -122.13)"/><path class="cls-87" d="M782,214h1v1h-1Z" transform="translate(-566.45 -122.13)"/><path class="cls-8" d="M784,209h1l-1,1Z" transform="translate(-566.45 -122.13)"/><path class="cls-8" d="M786,207v-1h1Z" transform="translate(-566.45 -122.13)"/><path class="cls-45" d="M573,504v2.23q.09.83.22,1.66a2.66,2.66,0,0,1-.07,1.16,35.06,35.06,0,0,1-.15,9.22V521h12V504Z" transform="translate(-566.45 -122.13)"/><path class="cls-54" d="M575,482c-.08,2.36-.21,4.71-.34,7.06a2.4,2.4,0,0,1-.83,1.73l0,.21H585v-9Z" transform="translate(-566.45 -122.13)"/><path class="cls-88" d="M586,437v39h-1V437Z" transform="translate(-566.45 -122.13)"/><path class="cls-89" d="M586,373v32h-1V373Z" transform="translate(-566.45 -122.13)"/><path class="cls-90" d="M585,405h1v32h-1V405Z" transform="translate(-566.45 -122.13)"/><path class="cls-91" d="M586,373h-1V343h1Z" transform="translate(-566.45 -122.13)"/><path class="cls-92" d="M586,343h-1V314h1Z" transform="translate(-566.45 -122.13)"/><path class="cls-93" d="M586,228v21h-1V228Z" transform="translate(-566.45 -122.13)"/><path class="cls-94" d="M586,314h-1V295h1Z" transform="translate(-566.45 -122.13)"/><path class="cls-95" d="M585,249h1v19h-1V249Z" transform="translate(-566.45 -122.13)"/><path class="cls-96" d="M585,491v-1c.33.26,1,.52,1,.79q.09,6.21,0,12.43c0,.27-.62.52-1,.79Q585,497.5,585,491Z" transform="translate(-566.45 -122.13)"/><path class="cls-97" d="M586,295h-1V281h1Z" transform="translate(-566.45 -122.13)"/><path class="cls-98" d="M586,281h-1V268h1Z" transform="translate(-566.45 -122.13)"/><path class="cls-96" d="M585,476h1c0,3.92,0,7.83,0,11.75,0,.42-.62.83-1,1.25V476Z" transform="translate(-566.45 -122.13)"/><path class="cls-99" d="M586,228h-1V216h1Z" transform="translate(-566.45 -122.13)"/><path class="cls-100" d="M585,548v-4c.33.39.88.75,1,1.18a17.82,17.82,0,0,1,0,2.82Z" transform="translate(-566.45 -122.13)"/><path class="cls-12" d="M585,554v-3h1C585.62,552,586.93,553.53,585,554Z" transform="translate(-566.45 -122.13)"/><path class="cls-101" d="M586,551h-1v-2h1Z" transform="translate(-566.45 -122.13)"/><path class="cls-100" d="M585,542v-2l1,1.24Z" transform="translate(-566.45 -122.13)"/><path class="cls-102" d="M586,549h-1v-1h1Z" transform="translate(-566.45 -122.13)"/><path class="cls-88" d="M783,457v19h-1V437h1v20Z" transform="translate(-566.45 -122.13)"/><path class="cls-90" d="M783,437h-1V405h1v32Z" transform="translate(-566.45 -122.13)"/><path class="cls-89" d="M783,405h-1V373h1v32Z" transform="translate(-566.45 -122.13)"/><path class="cls-91" d="M783,373h-1V343h1v30Z" transform="translate(-566.45 -122.13)"/><path class="cls-92" d="M783,343h-1V314h1v29Z" transform="translate(-566.45 -122.13)"/><path class="cls-93" d="M783,239v10h-1V228h1v11Z" transform="translate(-566.45 -122.13)"/><path class="cls-95" d="M782,249h1v19h-1Z" transform="translate(-566.45 -122.13)"/><path class="cls-94" d="M783,314h-1V295h1v19Z" transform="translate(-566.45 -122.13)"/><path class="cls-97" d="M783,295h-1V281h1v14Z" transform="translate(-566.45 -122.13)"/><path class="cls-96" d="M783,490v14c-.33-.26-1-.52-1-.79q-.09-6.21,0-12.43C782,490.52,782.67,490.26,783,490Z" transform="translate(-566.45 -122.13)"/><path class="cls-99" d="M783,228h-1V215h1v13Z" transform="translate(-566.45 -122.13)"/><path class="cls-98" d="M783,281h-1V268h1v13Z" transform="translate(-566.45 -122.13)"/><path class="cls-96" d="M782,476h1v13c-.33-.42-.95-.83-1-1.25C782,483.83,782,479.92,782,476Z" transform="translate(-566.45 -122.13)"/><path class="cls-100" d="M783,544v4h-1a17.81,17.81,0,0,1,0-2.82C782.12,544.75,782.67,544.39,783,544Z" transform="translate(-566.45 -122.13)"/><path class="cls-12" d="M783,551v3h-1v-3Z" transform="translate(-566.45 -122.13)"/><path class="cls-100" d="M783,541v1l-1-1.24,1-.76Z" transform="translate(-566.45 -122.13)"/><path class="cls-101" d="M783,551h-1v-2h1Z" transform="translate(-566.45 -122.13)"/><path class="cls-100" d="M783,558h-1c.15-.76-.5-1.91,1-2v2Z" transform="translate(-566.45 -122.13)"/><path class="cls-102" d="M783,549h-1v-1h1Z" transform="translate(-566.45 -122.13)"/><path class="cls-100" d="M782,554h1v1Z" transform="translate(-566.45 -122.13)"/><path class="cls-103" d="M783,541v-1a2.85,2.85,0,0,1,1,0,3.74,3.74,0,0,1,.85.65,4.68,4.68,0,0,1-.85.31A5.83,5.83,0,0,1,783,541Z" transform="translate(-566.45 -122.13)"/><path class="cls-104" d="M787.55,549l-.46-.59c.21-.06.56-.23.61-.17a2.78,2.78,0,0,1,.3.76Z" transform="translate(-566.45 -122.13)"/><path class="cls-103" d="M789.86,540.64l-.36.36a3.12,3.12,0,0,1-.31-.67c0-.08.2-.22.31-.33Z" transform="translate(-566.45 -122.13)"/><path class="cls-104" d="M783,558v-1h1Z" transform="translate(-566.45 -122.13)"/><path class="cls-46" d="M573.75,491c-.22,1.22-.47,2.43-.75,3.64V504h12V491Z" transform="translate(-566.45 -122.13)"/><path class="cls-47" d="M576.53,380c0,.06,0,.12,0,.17.33,3.27.67,6.54.75,9.83H585V380Z" transform="translate(-566.45 -122.13)"/><path class="cls-50" d="M575.52,447c-.07,2.75-.11,5.5-.09,8.26,0,.58,0,1.16,0,1.74H585V447Z" transform="translate(-566.45 -122.13)"/><path class="cls-51" d="M575.19,312c0,3.33,0,6.67,0,10H585V312Z" transform="translate(-566.45 -122.13)"/><path class="cls-53" d="M575.91,437c-.17,3.33-.31,6.66-.39,10H585V437Z" transform="translate(-566.45 -122.13)"/><path class="cls-52" d="M575.5,466c0,3.33,0,6.67-.19,10H585V466Z" transform="translate(-566.45 -122.13)"/><path class="cls-59" d="M574.93,356c0,3-.07,6-.07,9H585v-9Z" transform="translate(-566.45 -122.13)"/><path class="cls-55" d="M575.44,457c0,3,.06,6,.06,9H585v-9Z" transform="translate(-566.45 -122.13)"/><path class="cls-57" d="M576.92,420q-.28,4.5-.56,9H585v-9Z" transform="translate(-566.45 -122.13)"/><path class="cls-58" d="M574.81,347c0,.55,0,1.1.06,1.65.07,2.26.08,4.51.06,6.76,0,.11,0,.22,0,.33a.89.89,0,0,1,0,.11V356H585v-9Z" transform="translate(-566.45 -122.13)"/><path class="cls-56" d="M577.29,390c0,.45,0,.9,0,1.36a29.16,29.16,0,0,1-.23,3.44,13.2,13.2,0,0,1,.72,4.21H585v-9Z" transform="translate(-566.45 -122.13)"/><path class="cls-48" d="M573.77,297c0,.73,0,1.46.05,2.19a11.74,11.74,0,0,1,.44,2.66,2.26,2.26,0,0,1,.86,1.84c0,.44,0,.88,0,1.31H585v-8Z" transform="translate(-566.45 -122.13)"/><path class="cls-63" d="M577.37,412q-.21,4-.45,8H585v-8Z" transform="translate(-566.45 -122.13)"/><path class="cls-60" d="M576.36,429q-.25,4-.45,8H585v-8Z" transform="translate(-566.45 -122.13)"/><path class="cls-61" d="M577.71,404q-.13,4-.33,8H585v-8Z" transform="translate(-566.45 -122.13)"/><path class="cls-62" d="M575,372q0,1.39,0,2.79c1.45,1,1.4,3.64,1.53,5.21H585v-8Z" transform="translate(-566.45 -122.13)"/><path class="cls-105" d="M578.1,220c.2,2.64.26,5.32.27,8H585v-8Z" transform="translate(-566.45 -122.13)"/><path class="cls-67" d="M578.4,243c0,.37,0,.74,0,1.1q.15,2.95.31,5.9H585v-7Z" transform="translate(-566.45 -122.13)"/><path class="cls-66" d="M574.86,365c0,1.75,0,3.49.06,5.24,0,.58,0,1.17,0,1.76h10v-7Z" transform="translate(-566.45 -122.13)"/><path class="cls-65" d="M574.92,334c-.15,2.33-.22,4.67-.23,7H585v-7Z" transform="translate(-566.45 -122.13)"/><path class="cls-68" d="M575.13,305c0,2.32,0,4.65.06,7H585v-7Z" transform="translate(-566.45 -122.13)"/><path class="cls-70" d="M578.35,232c0,2.36-.05,4.7,0,7H585v-7Z" transform="translate(-566.45 -122.13)"/><path class="cls-74" d="M574.69,341c0,1.16,0,2.31,0,3.47q0,1.27.09,2.53H585v-6Z" transform="translate(-566.45 -122.13)"/><path class="cls-72" d="M575.31,476c-.08,1.79-.18,3.57-.32,5.35,0,.22,0,.43,0,.65h10v-6Z" transform="translate(-566.45 -122.13)"/><path class="cls-71" d="M574.87,328q-.09,1.24-.2,2.47a2.14,2.14,0,0,1,.39,1.53c-.06.67-.1,1.33-.14,2H585v-6Z" transform="translate(-566.45 -122.13)"/><path class="cls-73" d="M575.15,322c-.05,2-.13,4-.27,6H585v-6Z" transform="translate(-566.45 -122.13)"/><path class="cls-75" d="M579.35,265q.05,3,0,6H585v-6Z" transform="translate(-566.45 -122.13)"/><path class="cls-106" d="M576.61,292a13.74,13.74,0,0,1-2.87,4l0,1H585v-5Z" transform="translate(-566.45 -122.13)"/><path class="cls-76" d="M577.82,399c0,.17,0,.33,0,.5,0,1.5-.08,3-.13,4.5H585v-5Z" transform="translate(-566.45 -122.13)"/><path class="cls-79" d="M578,288a18,18,0,0,1-1.39,4H585v-4Z" transform="translate(-566.45 -122.13)"/><path class="cls-107" d="M579,254q.1,2,.18,4H585v-4Z" transform="translate(-566.45 -122.13)"/><path class="cls-49" d="M578.37,228c0,1.34,0,2.67,0,4H585v-4Z" transform="translate(-566.45 -122.13)"/><path class="cls-78" d="M578.76,250q.11,2,.21,4h6v-4Z" transform="translate(-566.45 -122.13)"/><path class="cls-80" d="M579.25,261q.06,2,.1,4H585v-4Z" transform="translate(-566.45 -122.13)"/><path class="cls-81" d="M578.31,239q0,2,.09,4H585v-4Z" transform="translate(-566.45 -122.13)"/><path class="cls-108" d="M579.29,274c0,1.33-.1,2.67-.18,4H585v-4Z" transform="translate(-566.45 -122.13)"/><path class="cls-77" d="M578.89,281c-.11,1.33-.26,2.67-.42,4H585v-4Z" transform="translate(-566.45 -122.13)"/><path class="cls-83" d="M579.36,271q0,1.5-.07,3H585v-3Z" transform="translate(-566.45 -122.13)"/><path class="cls-109" d="M579.14,258q.06,1.5.11,3H585v-3Z" transform="translate(-566.45 -122.13)"/><path class="cls-84" d="M579.11,278q-.09,1.5-.22,3H585v-3Z" transform="translate(-566.45 -122.13)"/><path class="cls-85" d="M578.47,285c0,.39-.09.78-.14,1.17-.08.62-.2,1.23-.34,1.83h7v-3Z" transform="translate(-566.45 -122.13)"/><path class="cls-103" d="M578.22,542l-.16-1.91.65-.09.38,2Z" transform="translate(-566.45 -122.13)"/><path class="cls-103" d="M585,540v1a2.85,2.85,0,0,1-1,0,3.74,3.74,0,0,1-.85-.65A4.68,4.68,0,0,1,584,540,5.83,5.83,0,0,1,585,540Z" transform="translate(-566.45 -122.13)"/><path class="cls-103" d="M579.92,542.58c-.12.12-.28.33-.32.31a4.59,4.59,0,0,1-.6-.44l.45-.45Z" transform="translate(-566.45 -122.13)"/><path class="cls-8" d="M583,207v2c-1.5-.09-.85-1.24-1-2Z" transform="translate(-566.45 -122.13)"/><path class="cls-8" d="M583,209h1v1Z" transform="translate(-566.45 -122.13)"/><path class="cls-110" d="M582,205v1h-1v-1Z" transform="translate(-566.45 -122.13)"/><path class="cls-8" d="M581,206h1v1Z" transform="translate(-566.45 -122.13)"/><path class="cls-111" d="M796,198h1l-1,1Z" transform="translate(-566.45 -122.13)"/><path class="cls-111" d="M794,199h1l-1,1Z" transform="translate(-566.45 -122.13)"/><path class="cls-111" d="M791,201h1l-1,1Z" transform="translate(-566.45 -122.13)"/><path class="cls-111" d="M790,202h1l-1,1Z" transform="translate(-566.45 -122.13)"/><path class="cls-112" d="M793.5,204a3.12,3.12,0,0,1,.31.67c0,.08-.2.22-.31.33a3.12,3.12,0,0,1-.31-.67C793.17,204.25,793.39,204.11,793.5,204Z" transform="translate(-566.45 -122.13)"/><path class="cls-113" d="M787,206h-1v-1h1Z" transform="translate(-566.45 -122.13)"/><path class="cls-114" d="M576,201h1v1Z" transform="translate(-566.45 -122.13)"/><path class="cls-114" d="M577,202h1v1Z" transform="translate(-566.45 -122.13)"/><path class="cls-115" d="M578,203v-1h1v1Z" transform="translate(-566.45 -122.13)"/><path class="cls-114" d="M573,199h1v1Z" transform="translate(-566.45 -122.13)"/><path class="cls-103" d="M605.93,171.75a3,3,0,0,1-.19.81c-.22.61.74.86,1,.27l1-2.6c.23-.6-.74-.86-1-.27l-1,2.6,1,.27a4.06,4.06,0,0,0,.22-1.08c.05-.64-.95-.64-1,0Z" transform="translate(-566.45 -122.13)"/><path class="cls-103" d="M606.09,169.33a10.12,10.12,0,0,1-.51,2.25c-.21.62.73.85,1,.27a10.18,10.18,0,0,0,.73-3.18c0-.64-1-.64-1,0a9.36,9.36,0,0,1-.69,2.92l1,.27a11.26,11.26,0,0,0,.55-2.52c.07-.64-.93-.63-1,0Z" transform="translate(-566.45 -122.13)"/><path class="cls-103" d="M606.89,166.88l-1.06,2.79,1,.27a35,35,0,0,0,1.12-5.89c.09-1,.08-2,.07-3,0-.36.11-4.35.75-3.93l-.18-.68c-1.34,1.82-1.13,3.78-1,5.93.12,2.51-.9,4.78-1,7.27,0,.61.78.62,1,.13l1.16-2.83c.24-.59-.72-.85-1-.27l-1.16,2.83,1,.13c.09-1.95.9-3.67,1-5.58.19-2.49-.76-4.9.86-7.11a.51.51,0,0,0-.18-.68c-1.48-1-2,.65-2.14,1.88-.21,1.67,0,3.32-.12,5a31.41,31.41,0,0,1-1.15,6.53.5.5,0,0,0,1,.27l1.06-2.79c.23-.6-.74-.86-1-.27Z" transform="translate(-566.45 -122.13)"/><path class="cls-103" d="M605.75,170.95a40.15,40.15,0,0,1-1.13,4.42h1l.14-.86-1-.27a31.34,31.34,0,0,1-5.61,9.65c-2.4,2.84-5.53,4.88-8.48,7.1-.51.38,0,1.25.5.86,3.32-2.5,6.65-4.74,9.29-8a32,32,0,0,0,5.26-9.37c.22-.62-.72-.84-1-.27a1.68,1.68,0,0,0-.14,1.4c.08.52.83.43,1,0a40.15,40.15,0,0,0,1.13-4.42c.12-.63-.84-.9-1-.27Z" transform="translate(-566.45 -122.13)"/><path class="cls-103" d="M570.36,195.82c4,1.21,8.94,0,12.88-1a33.64,33.64,0,0,0,11.94-5.44c.51-.38,0-1.25-.5-.86a32.33,32.33,0,0,1-10.9,5.13c-4,1.07-9.14,2.46-13.15,1.24-.62-.19-.88.78-.27,1Z" transform="translate(-566.45 -122.13)"/><path class="cls-103" d="M667.56,171.2c4.3,3.55,9.7,4.28,15.08,4.85l-.13-1a5.69,5.69,0,0,1-2.87.06l-.27,1a31.09,31.09,0,0,0,7.11.27.5.5,0,0,0,0-1l-4.14-.37c-.64-.06-.64.94,0,1l4.14.37v-1a29.8,29.8,0,0,1-6.84-.23c-.62-.09-.91.85-.27,1a8.48,8.48,0,0,0,3.41-.06c.59-.13.39-.93-.13-1-5.08-.54-10.29-1.2-14.37-4.56-.49-.41-1.2.3-.71.71Z" transform="translate(-566.45 -122.13)"/><path class="cls-103" d="M686,176a45.26,45.26,0,0,0,10.71-1.81c3.5-.95,5.6-1.94,8-4.77.33-.4-.12-1.15-.61-.79l-4.06,3c-.51.38,0,1.24.5.86a24.35,24.35,0,0,0,5.88-6.46c2-2.86,2.2-5.81,2.72-9.2.1-.63-.87-.9-1-.27-.44,2.85-.56,5.85-2.18,8.31a24.2,24.2,0,0,1-6,6.74l.5.86,4.06-3-.61-.79a12.25,12.25,0,0,1-3.39,3.18,23,23,0,0,1-5,1.56A41.74,41.74,0,0,1,686,175a.5.5,0,0,0,0,1Z" transform="translate(-566.45 -122.13)"/><path class="cls-103" d="M700.3,172.17c-.12.07-.39.15-.46.26s-.14.12,0,.24.14.24.29.16l-.39-.91-1.49.77c-.5.26-.15,1.11.39.91a16.65,16.65,0,0,0,3.37-1.66l-.5-.86-.64.48c-.51.38,0,1.25.5.86l.64-.48c.5-.37,0-1.22-.5-.86a15.48,15.48,0,0,1-3.13,1.55l.39.91,1.49-.77c.53-.28.14-1-.39-.91s-1.25.6-.92,1.29,1.29.17,1.81-.12.06-1.18-.5-.86Z" transform="translate(-566.45 -122.13)"/><path class="cls-103" d="M707.42,156.75v4.08a.5.5,0,0,0,1,0v-4.08a.5.5,0,0,0-1,0Z" transform="translate(-566.45 -122.13)"/><path class="cls-103" d="M702.4,171.15a13.13,13.13,0,0,1-3.85,1.64,23.73,23.73,0,0,1-3.92,1.42c-2.83.55-5.73.87-8.58,1.3-.57.09-.41,1,.13,1a67.51,67.51,0,0,0,9.88-.58l-.13-1a43.38,43.38,0,0,1-8.54,1v1a37.18,37.18,0,0,0,10.06-1.35c2-.63,5-.43,6.58-2a.5.5,0,0,0-.49-.84l-7.94,1.77.39.91a23.82,23.82,0,0,1,6.67-2.4l-.39-.91q-3.56,2.2-7.28,4.12l.61.79a13.1,13.1,0,0,1,4.16-2.27l-.39-.91A45.39,45.39,0,0,1,693,176l.27,1a62.89,62.89,0,0,1,7.5-1.79l-.27-1a32.05,32.05,0,0,1-7.59,2.11l.27,1A16.55,16.55,0,0,1,698.4,176l-.13-1a111.35,111.35,0,0,1-12.83,2.86l.27,1a48,48,0,0,1,10.1-2l-.13-1a35.74,35.74,0,0,1-8.51,1l.13,1a54.15,54.15,0,0,1,9.9-1.33l-.13-1a78.34,78.34,0,0,1-15.89,1.21l.13,1c3.19-1,6.89-.82,10.21-.9s6.91,0,10.36.1l-.25-.93a3.45,3.45,0,0,1-2.45.85c-.64,0-.64,1,0,1a4.94,4.94,0,0,0,3-1,.5.5,0,0,0-.25-.93c-3.77-.15-7.54-.19-11.31-.08-3.13.09-6.51,0-9.53.91a.5.5,0,0,0,.13,1,79.69,79.69,0,0,0,16.16-1.24c.56-.1.43-1-.13-1A55.57,55.57,0,0,0,687,176.85a.5.5,0,0,0,.13,1,36.81,36.81,0,0,0,8.78-1c.54-.13.44-1-.13-1a49.27,49.27,0,0,0-10.37,2.06.5.5,0,0,0,.27,1A111.35,111.35,0,0,0,698.53,176c.52-.15.45-1-.13-1a17.45,17.45,0,0,0-5.51,1.31.5.5,0,0,0,.27,1,32.05,32.05,0,0,0,7.59-2.11.5.5,0,0,0-.27-1A62.89,62.89,0,0,0,693,176a.5.5,0,0,0,.27,1,47.21,47.21,0,0,0,6.65-2.25c.52-.22.15-1.09-.39-.91a14.62,14.62,0,0,0-4.6,2.53c-.46.37.13,1,.61.79q3.72-1.92,7.28-4.12a.5.5,0,0,0-.39-.91,24.79,24.79,0,0,0-6.91,2.5c-.52.28-.15,1,.39.91l7.94-1.77-.49-.84c-.91.89-2.3.75-3.46,1a32,32,0,0,0-3.45,1,36.09,36.09,0,0,1-9,1.07.5.5,0,0,0,0,1,44.67,44.67,0,0,0,8.81-1c.54-.12.43-1.06-.13-1a67.51,67.51,0,0,1-9.88.58l.13,1c3.29-.5,7-.61,10.14-1.68,2.17-.74,4.85-1.49,6.66-2.94.5-.4-.21-1.11-.71-.71Z" transform="translate(-566.45 -122.13)"/><path class="cls-2" d="M700.72,175.57c-1.81.27-4.19.26-5.88.92-.62.24-.86.38-1,1a.51.51,0,0,0,.48.63,37,37,0,0,0,10.67-1.8.5.5,0,0,0-.27-1l-9.57,2.32c-.64.16-.35,1.05.27,1l7.22-1-.27-1c-1.49.51-3,1-4.51,1.38l.39.91c1.78-1,4.72-1.87,5.5-3.92a.5.5,0,0,0-.62-.62q-1.87.59-3.72,1.24l.49.84a48.33,48.33,0,0,1,4.73-3.56l-.61-.79a7.7,7.7,0,0,1-2.2,1.35l.61.79q2.18-2.36,4.53-4.55c.34-.32,0-1-.49-.84a1.69,1.69,0,0,1-.38-1.83.5.5,0,0,0-.84-.49l-.49.39.71.71c1.44-1.29,1.79-3,2.4-4.8.75-2.19,1.54-4.07.84-6.37l-.35.62.49,0-.3-.73c-1.59,2.31-1.56,5.37-2.45,8a25.79,25.79,0,0,1-5.44,9,.5.5,0,0,0,.71.71,20.94,20.94,0,0,0,4.36-5.57.5.5,0,0,0-.68-.68,23.25,23.25,0,0,0-4.9,3.48.5.5,0,0,0,.61.79,18.91,18.91,0,0,0,4.74-4.26l-.79-.61-.47.79a.5.5,0,0,0,.86.5l.47-.79c.28-.47-.42-1.06-.79-.61a17.94,17.94,0,0,1-4.54,4.11l.61.79a22.36,22.36,0,0,1,4.7-3.32l-.68-.68a20.22,20.22,0,0,1-4.2,5.37l.71.71a27.15,27.15,0,0,0,4.94-7.51c1.31-3,1.27-7,3.1-9.67a.51.51,0,0,0-.3-.73,1.23,1.23,0,0,0-1,0,.51.51,0,0,0-.35.62c.64,2.11-.17,3.87-.84,5.84-.54,1.58-.83,3.19-2.14,4.36-.49.44.22,1.1.71.71l.49-.39-.84-.49c-.26,1.26-.61,4,1.61,3.06l-.49-.84q-2.35,2.19-4.53,4.55a.5.5,0,0,0,.61.79,9,9,0,0,0,2.41-1.51c.43-.37-.14-1.11-.61-.79a50.42,50.42,0,0,0-4.94,3.72.5.5,0,0,0,.49.84q1.85-.65,3.72-1.24l-.62-.62c-.56,1.47-3.78,2.61-5,3.32a.5.5,0,0,0,.39.91c1.52-.41,3-.87,4.51-1.38a.5.5,0,0,0-.27-1l-7.22,1,.27,1,9.57-2.32-.27-1a36.08,36.08,0,0,1-10.4,1.76l.48.63c.21-.81,5.47-1.13,6.2-1.24s.36-1.06-.27-1Z" transform="translate(-566.45 -122.13)"/><path class="cls-2" d="M704.23,170.38l-4.59,5.53a.5.5,0,0,0,.61.79,37.34,37.34,0,0,0,6.12-3.61l-.61-.79a10.66,10.66,0,0,1-4.24,2.24l.56.73a18.94,18.94,0,0,1,3.91-4.77l-.79-.61a19.24,19.24,0,0,1-4.26,6.05l.79.61a25.77,25.77,0,0,1,5.4-5.75l-.79-.61a19.9,19.9,0,0,1-5.05,5.31l.68.68a21.55,21.55,0,0,1,4.06-5.1c.47-.44-.24-1.14-.71-.71a46.79,46.79,0,0,1-5.61,4.47l.68.68a17.15,17.15,0,0,1,3-3.73l-.71-.71a15.42,15.42,0,0,1-5.31,4.29l.68.68a11.18,11.18,0,0,1,3.11-3.06l-.61-.79a5,5,0,0,1-1.72,1.41l.68.68a8.42,8.42,0,0,1,2.25-2.58c.45-.35-.14-1.1-.61-.79l-5.87,3.95.61.79a35,35,0,0,1,7.65-4.49l-.61-.79-6.12,5,.71.71a26.89,26.89,0,0,1,5.8-4.71l-.68-.68a18,18,0,0,1-5.46,5.4l.61.79a13.75,13.75,0,0,1,5.19-3.12l-.39-.91a39.23,39.23,0,0,1-8,4.79l.5.86a24.11,24.11,0,0,1,7.15-3.15l-.56-.73c-.73,1.1-2.61,1.67-3.75,2.11q-.79.3-1.61.55a1.35,1.35,0,0,0-1.37,1.07c.45-.46-.26-1.17-.71-.71l-.08.08a.49.49,0,0,0-.13.49l0,.12a.52.52,0,0,0,.48.37c2.11.11,6.79-1.75,8-3.56a.51.51,0,0,0-.56-.73,24.83,24.83,0,0,0-7.39,3.25.5.5,0,0,0,.5.86,39.23,39.23,0,0,0,8-4.79c.41-.31.2-1.11-.39-.91a15.06,15.06,0,0,0-5.63,3.38.5.5,0,0,0,.61.79,19.31,19.31,0,0,0,5.82-5.76c.28-.43-.27-.92-.68-.68a27.81,27.81,0,0,0-6,4.86c-.47.46.22,1.11.71.71l6.12-5c.48-.39-.13-1-.61-.79a35.9,35.9,0,0,0-7.85,4.64c-.45.35.14,1.1.61.79l5.87-3.95-.61-.79a9,9,0,0,0-2.41,2.78.5.5,0,0,0,.68.68,7.85,7.85,0,0,0,1.92-1.57c.36-.4-.11-1.12-.61-.79a12.86,12.86,0,0,0-3.47,3.42c-.31.44.27.89.68.68a16,16,0,0,0,5.51-4.45c.39-.49-.23-1.16-.71-.71a17.84,17.84,0,0,0-3.14,3.93c-.25.41.26,1,.68.68A48.42,48.42,0,0,0,706,171.1l-.71-.71a22.42,22.42,0,0,0-4.22,5.3c-.23.41.26,1,.68.68a21.35,21.35,0,0,0,5.41-5.66c.34-.51-.37-.93-.79-.61a26.61,26.61,0,0,0-5.56,5.95c-.33.48.39,1,.79.61a19.84,19.84,0,0,0,4.42-6.26.5.5,0,0,0-.79-.61,19.85,19.85,0,0,0-4.06,5,.51.51,0,0,0,.56.73,11.9,11.9,0,0,0,4.68-2.49c.43-.36-.14-1.12-.61-.79a37.34,37.34,0,0,1-6.12,3.61l.61.79,4.59-5.53c.41-.49-.3-1.2-.71-.71Z" transform="translate(-566.45 -122.13)"/><path class="cls-2" d="M675.92,175.31a94.92,94.92,0,0,0,11.63.43c3.88-.17,7.53-1.5,11.36-1.76l-.43-.75c-.58,1.12-3.66,1.07-4.77,1.23q-3.07.44-6.16.72a84.11,84.11,0,0,1-9.63.41v1q6.35.12,12.71,0,2.93,0,5.86-.13c1.1,0,2.35.21,3.15-.65a.5.5,0,0,0-.49-.84,107.84,107.84,0,0,1-19.87,1.94v1c3.81-.4,7.61-.77,11.44-.87v-1l-10.5.56c-.64,0-.65,1,0,1l13.65-.34-.13-1a67.93,67.93,0,0,1-11.28,1.92l.13,1q5.37-1.11,10.81-1.69l-.13-1q-4,.8-8.13,1.35l.27,1a45.44,45.44,0,0,1,9.78-.92l-.13-1a46.93,46.93,0,0,1-10.38,1.33l.43.75c1.17-1.73,5.17-2.34,7.11-2.68s3.81-.27,5.53-1.18a.5.5,0,0,0-.39-.91,35.2,35.2,0,0,0-4.3,1.75c-.47.23-.21.91.25.93a26.92,26.92,0,0,0,3.6-.06c.64-.05.64-1.05,0-1a26.92,26.92,0,0,1-3.6.06l.25.93a33.3,33.3,0,0,1,4.06-1.65l-.39-.91c-2.34,1.24-5.68,1-8.24,1.79-1.59.48-3.77,1-4.75,2.43a.5.5,0,0,0,.43.75,48.08,48.08,0,0,0,10.65-1.37.5.5,0,0,0-.13-1,46.69,46.69,0,0,0-10,1c-.64.12-.36,1,.27,1q4.08-.56,8.13-1.35c.55-.11.43-1-.13-1q-5.58.59-11.07,1.72c-.54.11-.43,1,.13,1a69.51,69.51,0,0,0,11.54-2,.5.5,0,0,0-.13-1l-13.65.34v1l10.5-.56c.64,0,.65-1,0-1-3.83.1-7.63.47-11.44.87-.63.07-.66,1,0,1a109.31,109.31,0,0,0,20.13-2l-.49-.84c-.78.85-4.23.41-5.37.44q-2.69.06-5.38.08-5.13,0-10.27-.06a.5.5,0,0,0,0,1,91.47,91.47,0,0,0,13-.77c2-.24,4-.49,5.92-.86,1-.2,2-.23,2.48-1.24a.5.5,0,0,0-.43-.75c-3.84.26-7.47,1.58-11.36,1.76a94.93,94.93,0,0,1-11.63-.43c-.64-.05-.64,1,0,1Z" transform="translate(-566.45 -122.13)"/><path class="cls-2" d="M667.16,171.61a28.31,28.31,0,0,0,10.12,3.72l.13-1a15.67,15.67,0,0,1-8.75-2.93c-2-1.44-4.45-2.18-6.44-3.67-.45-.34-1,.41-.61.79a33.4,33.4,0,0,0,5.86,4.56c2.31,1.3,4.81,1.36,7.24,2.26.6.22.86-.74.27-1-2.36-.88-4.73-.9-7-2.16a31.69,31.69,0,0,1-5.66-4.41l-.61.79a24.5,24.5,0,0,0,4,2.16c1.39.69,2.52,1.73,3.87,2.47a16.59,16.59,0,0,0,7.8,2.11c.54,0,.71-.89.13-1a27.65,27.65,0,0,1-9.88-3.62.5.5,0,0,0-.5.86Z" transform="translate(-566.45 -122.13)"/><path class="cls-2" d="M570.52,195.6a9.87,9.87,0,0,0,5.43,1.53.5.5,0,0,0,.13-1l-4-1.51c-.57-.21-.81.61-.39.91.91.65,2.17.47,3.24.47a45.85,45.85,0,0,0,5.54-.32c.62-.07.66-1,0-1l-5.84.11a.5.5,0,0,0,0,1c2.06,0,4.11,0,6.16-.13l-.25-.93c-1.41.86-4.15.52-5.74.61-.53,0-.72.89-.13,1a21.14,21.14,0,0,0,7.95-.2c.63-.13.36-1.1-.27-1a19.56,19.56,0,0,1-7.42.2l-.13,1c1.9-.1,4.56.29,6.25-.74a.5.5,0,0,0-.25-.93c-2.06.14-4.1.18-6.16.13v1l5.84-.11v-1c-1.28.15-2.55.26-3.83.3-1.13,0-3.51.36-4.44-.32l-.39.91,4,1.51.13-1a8.81,8.81,0,0,1-4.92-1.39c-.55-.34-1.05.52-.5.86Z" transform="translate(-566.45 -122.13)"/><path class="cls-2" d="M578.86,195.84a20.25,20.25,0,0,1,4.29-1.23l-.27-1-4.24,1a.5.5,0,0,0,.13,1,41.17,41.17,0,0,0,9.06-1.67.5.5,0,0,0-.27-1L581,194.47c-.64.15-.35,1.05.27,1a17.65,17.65,0,0,0,6.42-2.23c.48-.27.16-1.11-.39-.91a28.27,28.27,0,0,1-4.68,1.25c-.56.1-.43,1,.13,1,3.23-.15,5.8-2.19,8.89-2.9l-.39-.91c-2,1.1-4.11,2.1-6.24,3a.5.5,0,0,0,.27,1c3.88-.8,7-3.49,10.73-4.86.59-.22.36-1.15-.27-1a32.37,32.37,0,0,0-5.5,2.37l.5.86a36.07,36.07,0,0,0,5-3.46c.43-.36-.15-1.13-.61-.79a28.52,28.52,0,0,1-4.31,2.71.5.5,0,0,0,.39.91,12.93,12.93,0,0,0,6-4.29c1.52-1.78,3.93-2.6,5.08-4.7.31-.57-.56-1.07-.86-.5-1,1.8-3,2.47-4.39,3.9-1.92,2-3.29,3.7-6,4.63l.39.91a28.52,28.52,0,0,0,4.31-2.71l-.61-.79a34.56,34.56,0,0,1-4.83,3.31c-.56.32-.07,1.16.5.86a31.05,31.05,0,0,1,5.27-2.27l-.27-1c-3.67,1.37-6.88,4.07-10.73,4.86l.27,1c2.21-.93,4.37-2,6.48-3.1.51-.28.15-1-.39-.91-3,.68-5.52,2.72-8.63,2.86l.13,1a28.27,28.27,0,0,0,4.68-1.25l-.39-.91a16.87,16.87,0,0,1-6.18,2.13l.27,1,6.52-1.51-.27-1a40,40,0,0,1-8.79,1.64l.13,1,4.24-1c.64-.14.36-1.07-.27-1a20.25,20.25,0,0,0-4.29,1.23c-.59.24-.33,1.21.27,1Z" transform="translate(-566.45 -122.13)"/><path class="cls-2" d="M599.5,185.09a3.45,3.45,0,0,0-3.37,2.63c-.12.39.38.83.73.56,1.79-1.33,2.77-3.1,4-4.92S604,180,605,177.82c.23-.55-.62-.83-.91-.39a14.77,14.77,0,0,0-1.71,3.42l1,.13a9.28,9.28,0,0,1,1.54-4.18l-.86-.5-1.74,2.84c-.29.47.42,1.05.79.61a20.5,20.5,0,0,0,3.9-7.43c.17-.58-.6-.82-.91-.39a11.18,11.18,0,0,0-2,4.52c-.13.63.83.9,1,.27a10.82,10.82,0,0,1,1.91-4.28l-.91-.39a19.22,19.22,0,0,1-3.64,7l.79.61,1.74-2.84c.34-.55-.51-1-.86-.5a10.5,10.5,0,0,0-1.68,4.68c-.07.59.81.63,1,.13a13.54,13.54,0,0,1,1.61-3.19l-.91-.39c-.77,1.85-2.44,3.09-3.59,4.7-1.28,1.81-2.21,3.81-4,5.17l.73.56,2.4-1.89c.64,0,.64-1,0-1Z" transform="translate(-566.45 -122.13)"/><path class="cls-2" d="M608.31,164.32c-1.9,1.86-1.11,5.18-2.52,7.31l.91.39a21.31,21.31,0,0,1,2.11-5.18l-.91-.39q-.81,3-1.81,6c-.21.61.76.87,1,.27q1-3,1.81-6a.5.5,0,0,0-.91-.39,22.26,22.26,0,0,0-2.21,5.42.5.5,0,0,0,.91.39,9,9,0,0,0,1-3c.3-1.27.41-3.16,1.38-4.11.46-.45-.25-1.16-.71-.71Z" transform="translate(-566.45 -122.13)"/><path class="cls-2" d="M607.32,162.33A13.41,13.41,0,0,1,607,166l1,.27c.48-2.77,2.25-7.08.94-9.8a.5.5,0,0,0-.43-.25c-.7,0-.85.44-1,1a24.09,24.09,0,0,0-.19,6c0,.64,1,.64,1,0,0-1.11-.05-2.22,0-3.33,0-.55.13-1.12.1-1.66s-.08-.68-.16.22c-.23,2.56-.79,5-1.23,7.53-.11.62.81.9,1,.27a14.37,14.37,0,0,0,.38-3.94c0-.64-1-.64-1,0Z" transform="translate(-566.45 -122.13)"/><path class="cls-2" d="M610.72,158.24a7.81,7.81,0,0,1,4.37-.09l-.3-.73c-.16.3-1.87.3-2.18.33-.77.07-1.55.09-2.33.11a.5.5,0,0,0,0,1,32.38,32.38,0,0,0,4.08,0,.5.5,0,0,0,.13-1,38.48,38.48,0,0,0-5.84-1.61l-.13,1c.31,0,.79-.07,1,.13s.09,0,.17.4a4.39,4.39,0,0,0,.28,1.32,4.94,4.94,0,0,0,2.65,2c.58.26,1.09-.6.5-.86a4.38,4.38,0,0,1-2.2-1.52c-.36-.65.06-1.28-.22-1.9s-1.57-.57-2.22-.6-.69.87-.13,1a38.48,38.48,0,0,1,5.84,1.61l.13-1a32.38,32.38,0,0,1-4.08,0v1a31.83,31.83,0,0,0,3.68-.26c.62-.09,1.37-.06,1.7-.67a.51.51,0,0,0-.3-.73,8.87,8.87,0,0,0-4.91.09.5.5,0,0,0,.27,1Z" transform="translate(-566.45 -122.13)"/><path class="cls-2" d="M759.92,156.91a4,4,0,0,1-.95,0l.08.61q.77-.73,1.23.12l.12.93a.5.5,0,0,0,1,0l0-1.87a.51.51,0,0,0-.85-.35c-1.91,1.5-1.68,5-.88,7,.17.42.84.53,1,0a22.47,22.47,0,0,0,.61-5.11.5.5,0,0,0-1-.13,31.15,31.15,0,0,0-1,4.84c-.07.58.83.65,1,.13.38-1.24.69-2.49.95-3.76l-1-.13a27.38,27.38,0,0,0,.32,4.9c.09.59.94.39,1-.13a27.64,27.64,0,0,0,.1-5c0-.52-.85-.72-1-.13a14.35,14.35,0,0,0-.34,3.37.5.5,0,0,0,1,0,13.22,13.22,0,0,1,.3-3.11l-1-.13a27.65,27.65,0,0,1-.1,5l1-.13a25.89,25.89,0,0,1-.29-4.63c0-.55-.87-.69-1-.13-.26,1.27-.57,2.52-.95,3.76l1,.13a29.48,29.48,0,0,1,1-4.58l-1-.13a21.3,21.3,0,0,1-.58,4.84h1c-.67-1.68-1-4.77.62-6l-.85-.35,0,1.87h1c-.11-.89,0-2.08-1-2.33a2,2,0,0,0-2.19.78.53.53,0,0,0,.08.61c.42.49,1.06.35,1.66.34a.5.5,0,0,0,0-1Z" transform="translate(-566.45 -122.13)"/><path class="cls-2" d="M760.57,162.37q1.06,3.93,1.78,7.93l.91-.39-3.77-7.59-.79.61c1.38,1.46,2.06,3.84,2.86,5.66.24.54,1,.14.91-.39l-1.3-5.46a.5.5,0,0,0-1,.13,23.81,23.81,0,0,0,1.25,9.08.5.5,0,0,0,1-.27l-.83-6c-.08-.55-1-.43-1,.13a43,43,0,0,0,1.31,7.12.5.5,0,0,0,1-.13,25.32,25.32,0,0,0,.06-3.18l-1,.13c.28,2,.66,4.05,1.13,6.06l1-.27a20.1,20.1,0,0,0-1.74-3.32.5.5,0,0,0-.91.39,14.45,14.45,0,0,0,2.4,5.6.5.5,0,0,0,.91-.39c-.3-1.43-.66-2.84-1.09-4.24l-.91.39,1.93,4.36.86-.5c-.85-1.66-2.5-2.94-2.48-5l-.85.35a8.66,8.66,0,0,1,2.74,5.06l.91-.39-2.53-5c-.29-.57-1.15-.07-.86.5l2.53,5c.27.54,1,.14.91-.39a9.46,9.46,0,0,0-3-5.51.51.51,0,0,0-.85.35c0,2.26,1.64,3.58,2.61,5.47.3.58,1.12.07.86-.5l-1.93-4.36c-.23-.52-1.07-.15-.91.39.42,1.4.78,2.81,1.09,4.24l.91-.39a13.91,13.91,0,0,1-2.3-5.36l-.91.39a18.2,18.2,0,0,1,1.64,3.08.5.5,0,0,0,1-.27c-.47-2-.85-4-1.13-6.06-.08-.56-1-.42-1,.13a25.32,25.32,0,0,1-.06,3.18l1-.13a41.29,41.29,0,0,1-1.27-6.85l-1,.13.83,6,1-.27a23.23,23.23,0,0,1-1.22-8.81l-1,.13,1.3,5.46.91-.39c-.87-2-1.52-4.28-3-5.86-.41-.43-1,.12-.79.61l3.77,7.59c.27.54,1,.14.91-.39q-.73-4-1.78-7.93a.5.5,0,0,0-1,.27Z" transform="translate(-566.45 -122.13)"/><path class="cls-2" d="M764.47,178.09l1.7,3.55c.28.58,1.13.07.86-.5a25.44,25.44,0,0,1-1.25-3.24l-.91.39c2.5,5.35,7.83,10.19,12.86,13.15,5.93,3.49,12.71,4.1,19.44,4.55.64,0,.64-1,0-1-6.55-.43-13.15-1-18.93-4.41-4.85-2.86-10.08-7.62-12.5-12.79-.24-.51-1.08-.15-.91.39a27.91,27.91,0,0,0,1.35,3.48l.86-.5-1.7-3.55c-.28-.58-1.14-.07-.86.5Z" transform="translate(-566.45 -122.13)"/><path class="cls-2" d="M765.62,181.38l3,3.15.71-.71c-3.82-3.13-5.51-8.26-7.85-12.51-.31-.56-1.18-.06-.86.5,2.41,4.36,4.08,9.49,8,12.71.49.4,1.16-.23.71-.71l-3-3.15c-.45-.47-1.15.24-.71.71Z" transform="translate(-566.45 -122.13)"/><path class="cls-2" d="M766,181.14a25.27,25.27,0,0,0,12.18,10.41c.59.24.85-.72.27-1a24.15,24.15,0,0,1-11.58-9.95.5.5,0,0,0-.86.5Z" transform="translate(-566.45 -122.13)"/><path class="cls-2" d="M780,214.16a9.29,9.29,0,0,1,.55,5.48l1,.13,0-6.57c0-.55-.88-.7-1-.13a94.29,94.29,0,0,0-1.25,10.87c0,.64,1,.64,1,0a92,92,0,0,1,1.21-10.61l-1-.13,0,6.57c0,.55.87.7,1,.13a10.18,10.18,0,0,0-.55-6c-.24-.59-1.21-.33-1,.27Z" transform="translate(-566.45 -122.13)"/><path class="cls-2" d="M780.31,216.5q0,5.64.08,11.27a.5.5,0,0,0,1,0q0-7.24-.44-14.46h-1a86.94,86.94,0,0,1,.1,10.56c-.12,3-.73,6.39,0,9.32a.5.5,0,0,0,1,0c1-2.85.65-5.79.83-8.76h-1q.18,6.85-.12,13.7h1l.19-9.15c0-.66-.93-.63-1,0a115.49,115.49,0,0,0-.57,15.94c0,.54.87.71,1,.13a63.46,63.46,0,0,0,1.12-9.31c0-.58-.81-.65-1-.13a20.55,20.55,0,0,0-.59,10.6c.13.63,1.09.36,1-.27a19.48,19.48,0,0,1,.59-10.07l-1-.13a61.7,61.7,0,0,1-1.09,9l1,.13a115.49,115.49,0,0,1,.57-15.94h-1l-.19,9.15a.5.5,0,0,0,1,0q.31-6.85.12-13.7a.5.5,0,0,0-1,0c-.17,2.87.19,5.74-.79,8.5h1c-.8-3.11-.07-6.84,0-10a81.58,81.58,0,0,0-.14-9.6c-.05-.63-1-.65-1,0q.4,7.23.44,14.46h1q-.1-5.63-.08-11.27a.5.5,0,0,0-1,0Z" transform="translate(-566.45 -122.13)"/><path class="cls-2" d="M780.65,243.93c-1.06,7.31-.25,14.69-.74,22h1c-.21-6.89-.74-13.85-.44-20.73l-1,.13c.64,2.65.46,5.58.57,8.29l.29,6.87.61,14.72a.5.5,0,0,0,1,0,154.74,154.74,0,0,0-.42-17.26c-.43-5.28-2.57-12,.2-16.9l-.93-.25c.13,5.25-.82,10.46-.82,15.72s.26,10.6-.39,15.88c-.08.64.92.63,1,0,.65-5.28.39-10.58.39-15.88s.94-10.47.82-15.72a.5.5,0,0,0-.93-.25c-2.67,4.71-1,10.42-.5,15.49a154.3,154.3,0,0,1,.58,19.17h1l-.65-15.7c-.19-4.66.25-9.9-.85-14.44a.5.5,0,0,0-1,.13c-.29,6.89.23,13.85.44,20.73a.5.5,0,0,0,1,0c.48-7.25-.34-14.55.7-21.77.09-.63-.87-.9-1-.27Z" transform="translate(-566.45 -122.13)"/><path class="cls-2" d="M780.56,272.31c-.33,3.57-1.19,7.08-1.21,10.68,0,3.83.74,7.61.81,11.43a.5.5,0,0,0,1,0q.59-10,.43-20.1a.5.5,0,0,0-1,0c0,8.1,2,16.2.47,24.27l1,.13L781.19,281l-1,.13c1.24,3.47.94,7.71,1.12,11.36s.92,7.6.3,11.1l1,.13a89.44,89.44,0,0,1-.21-9.46.5.5,0,0,0-1,0l0,9.05,1-.13a66.19,66.19,0,0,1-.64-7.72h-1a70.09,70.09,0,0,1,.36,8.15l1-.13a25.41,25.41,0,0,1-.35-4.93h-1q0,2.57.14,5.15a.5.5,0,0,0,1,0c.07-1.36.09-2.71,0-4.06,0-.64-1-.64-1,0,0,1.36,0,2.71,0,4.06h1q-.11-2.57-.14-5.15a.5.5,0,0,0-1,0,26.78,26.78,0,0,0,.39,5.2c.1.57,1,.41,1-.13a70.09,70.09,0,0,0-.36-8.15c-.06-.63-1-.66-1,0a68.58,68.58,0,0,0,.68,8c.08.57,1,.42,1-.13l0-9.05h-1a89.45,89.45,0,0,0,.21,9.46c.06.51.87.74,1,.13.64-3.62-.08-7.72-.26-11.37s.13-8-1.15-11.63c-.18-.5-1-.46-1,.13l.86,17.74c0,.53.88.72,1,.13,1.5-8.17-.42-16.33-.44-24.54h-1q.16,10.06-.43,20.1h1c-.07-3.82-.82-7.61-.81-11.43,0-3.59.88-7.11,1.21-10.68.06-.64-.94-.64-1,0Z" transform="translate(-566.45 -122.13)"/><path class="cls-2" d="M781.25,303.06c-1.21,2.45-1,5.87-1.14,8.54-.22,3.78-.26,7.55-.16,11.33a.5.5,0,0,0,1,0c.34-4.93-.28-9.84-.31-14.77h-1q.34,8.69.46,17.38h1q-.52-9.16-1.12-18.32c0-.64-1-.64-1,0q.55,8.74.69,17.5a.5.5,0,0,0,1,0c.37-5.9.05-11.83-.09-17.74h-1c.43,5.93-.17,11.89.55,17.8a.5.5,0,0,0,1,0,141.54,141.54,0,0,0,.51-14.74h-1l.43,17.8a.5.5,0,0,0,1,0c0-3.81-.4-7.6-.82-11.38a.5.5,0,0,0-1,0,93.65,93.65,0,0,0,.3,13.17.5.5,0,0,0,1,0,39.23,39.23,0,0,0,.26-6.12.5.5,0,0,0-1,0l.14,10.16h1a31.55,31.55,0,0,1,.2-4.83h-1c0,2.1,0,4.19-.1,6.29,0,.64,1,.64,1,0,.1-2.1.13-4.19.1-6.29a.5.5,0,0,0-1,0,31.55,31.55,0,0,0-.2,4.83.5.5,0,0,0,1,0l-.14-10.16h-1a39.23,39.23,0,0,1-.26,6.12h1a93.65,93.65,0,0,1-.3-13.17h-1c.42,3.79.78,7.57.82,11.38h1l-.43-17.8a.5.5,0,0,0-1,0,141.54,141.54,0,0,1-.51,14.74h1c-.72-5.91-.12-11.87-.55-17.8,0-.63-1-.65-1,0,.15,5.91.47,11.84.09,17.74h1q-.14-8.76-.69-17.5h-1q.6,9.16,1.12,18.32a.5.5,0,0,0,1,0q-.11-8.69-.46-17.38a.5.5,0,0,0-1,0c0,4.93.65,9.84.31,14.77h1c-.08-3.12-.08-6.24.06-9.36.13-2.94-.22-7.32,1.11-10,.28-.57-.58-1.08-.86-.5Z" transform="translate(-566.45 -122.13)"/><path class="cls-2" d="M780.39,333.87a77.44,77.44,0,0,0-.17,8.6.5.5,0,0,0,1,0,74.92,74.92,0,0,0,.45-8.34.5.5,0,0,0-1,0c-.21,7-.44,14-.92,21h1l-1.4-14.2c-.06-.63-1-.65-1,0q.51,8.18.48,16.38c0,.66.93.62,1,0,.46-3.85.64-7.72.8-11.59h-1l.25,14.86a.5.5,0,0,0,1,0,90.08,90.08,0,0,0,.21-13.46.5.5,0,0,0-1,0l.2,13.84a.5.5,0,0,0,1,0l.22-11.19h-1q.23,9.5.92,19a.5.5,0,0,0,1,0l.17-7.88h-1q.12,4.23-.07,8.45h1q-.09-6.17-.67-12.31a.5.5,0,0,0-1,0q-.49,4.85-.5,9.72h1a61.18,61.18,0,0,1,.13-6.61h-1q-.06,5.39-.41,10.76h1a18.12,18.12,0,0,1,.56-3.91l-1-.13c0,2,0,4-.19,6h1l.32-5.23h-1q-.12,3.47-.44,6.93c-.06.65.92.63,1,0l.07-.56c.08-.64-.92-.63-1,0l-.07.56h1q.32-3.46.44-6.93c0-.65-1-.64-1,0l-.32,5.23c0,.64,1,.64,1,0,.14-2,.2-4,.19-6a.5.5,0,0,0-1-.13,19.27,19.27,0,0,0-.59,4.18c0,.65,1,.64,1,0q.35-5.38.41-10.76a.5.5,0,0,0-1,0,61.18,61.18,0,0,0-.13,6.61.5.5,0,0,0,1,0q0-4.88.5-9.72h-1q.58,6.14.67,12.31a.5.5,0,0,0,1,0q.18-4.22.07-8.45a.5.5,0,0,0-1,0l-.17,7.88h1q-.7-9.48-.92-19a.5.5,0,0,0-1,0l-.22,11.19h1l-.2-13.84h-1a90.07,90.07,0,0,1-.21,13.46h1l-.25-14.86a.5.5,0,0,0-1,0c-.16,3.87-.34,7.74-.8,11.59h1q0-8.2-.48-16.38h-1l1.4,14.2a.5.5,0,0,0,1,0c.48-7,.71-14,.92-21h-1a74.92,74.92,0,0,1-.45,8.34h1a77.44,77.44,0,0,1,.17-8.6c0-.64-1-.64-1,0Z" transform="translate(-566.45 -122.13)"/><path class="cls-2" d="M780.52,373.18c-.15,3.9-.09,7.79,0,11.69h1l-.69-9.08c0-.63-1-.65-1,0,.12,5.14.2,10.28,0,15.42,0,.64,1,.64,1,0l.29-6.81h-1l.08,7.68c0,.66.92.62,1,0a49.9,49.9,0,0,0,.22-7.72.5.5,0,0,0-1,0q-.47,4.89-.7,9.8c0,.65.94.63,1,0l.56-6.24h-1q-.07,4-.2,8c0,.64,1,.64,1,0l.25-5.44c0-.66-.93-.62-1,0q-.42,3.73-.62,7.47c0,.65,1,.64,1,0l.39-5h-1q-.05,3,0,6.09a.5.5,0,0,0,1,0c.16-1.56.26-3.11.3-4.68,0-.65-.94-.63-1,0-.19,2.09-.21,4.18-.22,6.28a.5.5,0,0,0,1,0c0-2.1,0-4.19.22-6.28h-1c0,1.57-.14,3.12-.3,4.68h1q-.1-3,0-6.09c0-.65-1-.63-1,0l-.39,5h1q.19-3.75.62-7.47h-1l-.25,5.44h1q.14-4,.2-8c0-.65-.94-.63-1,0l-.56,6.24h1q.24-4.91.7-9.8h-1a49.9,49.9,0,0,1-.22,7.72h1l-.08-7.68a.5.5,0,0,0-1,0l-.29,6.81h1c.16-5.14.07-10.28,0-15.42h-1l.69,9.08c0,.63,1,.65,1,0-.07-3.9-.13-7.79,0-11.69,0-.64-1-.64-1,0Z" transform="translate(-566.45 -122.13)"/><path class="cls-2" d="M780.56,401.12a110.41,110.41,0,0,0-.81,12.32.5.5,0,0,0,1,0c.26-4.07.18-8.15.07-12.22a.5.5,0,0,0-1,0,127.19,127.19,0,0,0,.62,13.37.5.5,0,0,0,1,0,52.76,52.76,0,0,0,0-9.74.5.5,0,0,0-1,0,52.75,52.75,0,0,0,0,10,.5.5,0,0,0,1,0,45.24,45.24,0,0,0,.23-6.3.5.5,0,0,0-1,0,110.67,110.67,0,0,0-.27,12c0,.53.9.72,1,.13a40.6,40.6,0,0,0,.41-6.91.5.5,0,0,0-1,0q-.55,5.42-.71,10.86c0,.55.87.69,1,.13a46.42,46.42,0,0,0,.71-5h-1q.18,4.68.12,9.37h1l-.05-6a.5.5,0,0,0-1,0l-.53,8.32h1l.09-3.09h-1q.09,3.46.05,6.92h1v-1.54a.5.5,0,0,0-1,0v1.54a.5.5,0,0,0,1,0q0-3.46-.05-6.92a.5.5,0,0,0-1,0l-.09,3.09c0,.65,1,.64,1,0l.53-8.32h-1l.05,6a.5.5,0,0,0,1,0q.06-4.69-.12-9.37a.5.5,0,0,0-1,0,44.08,44.08,0,0,1-.67,4.78l1,.13q.16-5.45.71-10.86h-1a39,39,0,0,1-.38,6.64l1,.13a110.67,110.67,0,0,1,.27-12h-1a45.24,45.24,0,0,1-.23,6.3h1a52.75,52.75,0,0,1,0-10h-1a52.76,52.76,0,0,1,0,9.74h1a127.19,127.19,0,0,1-.62-13.37h-1c.11,4.08.19,8.15-.07,12.22h1a110.41,110.41,0,0,1,.81-12.32c.08-.64-.92-.63-1,0Z" transform="translate(-566.45 -122.13)"/><path class="cls-2" d="M780.39,434.06a103,103,0,0,0,0,11.56c0,.64,1,.65,1,0a67.55,67.55,0,0,0-1.17-9.87c-.1-.56-1-.42-1,.13.06,5.1.14,10.2.48,15.29a.5.5,0,0,0,1,0l0-8.41h-1q.06,5.08.21,10.16a.5.5,0,0,0,1,.13c1.14-2.75.7-6.44.71-9.37,0-.65-.94-.63-1,0-.37,4-.72,8-.76,12a.5.5,0,0,0,1,0q.37-5,.3-10a.5.5,0,0,0-1,0c0,4.15.11,8.29.48,12.43a.5.5,0,0,0,1,0c0-2.58-.13-5.14-.37-7.71a.5.5,0,0,0-1,0,95.13,95.13,0,0,0-.76,9.76c0,.55.91.7,1,.13l.71-5.22-1-.13q.3,3.06.81,6.08c.1.61.91.37,1-.13a29,29,0,0,0,.25-4.49.5.5,0,0,0-1,0,29,29,0,0,1-.25,4.49l1-.13q-.49-2.9-.78-5.82c-.05-.51-.9-.74-1-.13l-.71,5.22,1,.13a95.13,95.13,0,0,1,.76-9.76h-1c.24,2.57.36,5.13.37,7.71h1c-.38-4.14-.44-8.28-.48-12.43h-1q.07,5-.3,10h1c0-4,.39-8,.76-12h-1c0,2.8.41,6.49-.67,9.1l1,.13q-.15-5.08-.21-10.16a.5.5,0,0,0-1,0l0,8.41h1c-.34-5.09-.42-10.19-.48-15.29l-1,.13a65.79,65.79,0,0,1,1.13,9.6h1a103,103,0,0,1,0-11.56c0-.64-1-.64-1,0Z" transform="translate(-566.45 -122.13)"/><path class="cls-2" d="M700.1,170.93a17.29,17.29,0,0,1-5,2.37l.39.91a30.27,30.27,0,0,1,4.86-2.57,9.71,9.71,0,0,0,3.26-2.15.5.5,0,0,0-.71-.71,11.62,11.62,0,0,1-4,2.35,27.45,27.45,0,0,0-3.94,2.2c-.46.29-.17,1.1.39.91a18.11,18.11,0,0,0,5.28-2.47c.51-.38,0-1.25-.5-.86Z" transform="translate(-566.45 -122.13)"/><path class="cls-2" d="M779.71,562.54a3,3,0,0,1,.08,1.44l1,.27a2.24,2.24,0,0,1,.21-.72l-.93-.25a9.15,9.15,0,0,1,0,1.51.5.5,0,0,0,1,.13,5.78,5.78,0,0,0,.19-1.83c0-.64-1-.64-1,0a4.88,4.88,0,0,1-.15,1.56l1,.13a9.15,9.15,0,0,0,0-1.51c0-.44-.69-.74-.93-.25a3,3,0,0,0-.31,1c-.09.62.84.91,1,.27a4.17,4.17,0,0,0-.08-2,.5.5,0,0,0-1,.27Z" transform="translate(-566.45 -122.13)"/><path class="cls-2" d="M780.11,563l-1.82,1.29v1l1.38,0a.5.5,0,0,0,.13-1,12.36,12.36,0,0,0-2.24-.54v1a4.48,4.48,0,0,1,2-.19c.65,0,.64-1,0-1a24.11,24.11,0,0,0-7,.49.5.5,0,0,0,.13,1l5-.22-.25-.93a7.15,7.15,0,0,1-2.46.74c-.55.1-.43,1,.13,1l3.2-.25a.5.5,0,0,0,0-1c-6.36,0-12.27,2.2-17.91,5-.5.24-.14,1.13.39.91l1.77-.74-.49-.84-1,.63.39.91a28.61,28.61,0,0,0,5.1-3.8l-.79-.61-.71,1c-.32.44.28.89.68.68a54.74,54.74,0,0,1,6.18-2.66l-.39-.91a13.74,13.74,0,0,1-3.72,1.28c-.54.12-.44,1,.13,1a22.26,22.26,0,0,0,5.61-1.23c.6-.22.34-1.18-.27-1a21.08,21.08,0,0,1-5.35,1.19l.13,1a14.9,14.9,0,0,0,4-1.38c.49-.27.16-1.11-.39-.91a56.85,56.85,0,0,0-6.42,2.76l.68.68.71-1c.35-.47-.39-1-.79-.61a27.54,27.54,0,0,1-4.9,3.64c-.47.28-.16,1.12.39.91a2.84,2.84,0,0,0,1.45-.88c.35-.32,0-1-.49-.84l-1.77.74.39.91c5.5-2.68,11.22-4.81,17.41-4.82v-1l-3.2.25.13,1a10.94,10.94,0,0,0,2.7-.84c.46-.2.22-1-.25-.93l-5,.22.13,1a23,23,0,0,1,6.74-.46v-1a7.24,7.24,0,0,0-2.24.23c-.45.11-.5.89,0,1a12.36,12.36,0,0,1,2.24.54l.13-1-1.38,0a.5.5,0,0,0,0,1,2.48,2.48,0,0,0,2.78-2,.5.5,0,0,0-1-.27Z" transform="translate(-566.45 -122.13)"/><path class="cls-2" d="M761.09,569.35a30.65,30.65,0,0,0-3.77,2,.5.5,0,0,0,.5.86,17.93,17.93,0,0,0,2.34-1.31l-.61-.79-2.5,2.24c-.46.41.13,1,.61.79,2.07-.89,3.69-2.55,5.34-4,.48-.43-.23-1.13-.71-.71a20.22,20.22,0,0,1-5.14,3.88l.61.79,2.5-2.24a.5.5,0,0,0-.61-.79,17.93,17.93,0,0,1-2.34,1.31l.5.86a30.65,30.65,0,0,1,3.77-2c.58-.27.08-1.13-.5-.86Z" transform="translate(-566.45 -122.13)"/><path class="cls-2" d="M756.11,574a17.86,17.86,0,0,0-4,9.62c-.46,3.31-1.35,6.39,1.87,8.3l.12-.91c-2.21.86-3.58,2.53-5.3,4.08-1.48,1.34-4.18,2-4.48,4.2-.05.39.33.83.73.56a45.67,45.67,0,0,0,8.27-7.55c.43-.47-.27-1.18-.71-.71a44.66,44.66,0,0,1-8.07,7.39l.73.56c.22-1.66,3.07-2.7,4.22-3.76,1.55-1.42,2.84-3,4.86-3.83a.51.51,0,0,0,.12-.91c-2.82-1.67-1.64-6.51-1.08-9.13a15.57,15.57,0,0,1,3.41-7.22c.42-.48-.28-1.19-.71-.71Z" transform="translate(-566.45 -122.13)"/><path class="cls-2" d="M738.63,604.13a4.91,4.91,0,0,1-2.29,1.61l.49.84,6.18-5.5-.71-.71-3.56,3.35c-.4.38.14,1.13.61.79a79.34,79.34,0,0,0,9.62-8.38c.45-.46-.26-1.17-.71-.71a77.73,77.73,0,0,1-9.41,8.22l.61.79,3.56-3.35c.47-.44-.23-1.13-.71-.71l-6.18,5.5c-.36.32,0,1,.49.84a7,7,0,0,0,2.73-1.87c.44-.47-.27-1.18-.71-.71Z" transform="translate(-566.45 -122.13)"/><path class="cls-2" d="M587.47,562.91c-.06,1.12-.42,2.27.88,2.51a21.89,21.89,0,0,0,4.18-.11l4.18-.11a.5.5,0,0,0,.25-.93c-2.34-1.31-6-.76-8.6-.7-.54,0-.71.9-.13,1l5,.72c.63.09.9-.87.27-1l-5-.72-.13,1c1.29,0,2.59-.06,3.88,0s3.05,0,4.21.59l.25-.93-5.23.14a9.83,9.83,0,0,1-2.44.07q-1,.37-.63-.45l.05-1c0-.64-1-.64-1,0Z" transform="translate(-566.45 -122.13)"/><path class="cls-2" d="M591.06,565.16a14.66,14.66,0,0,0,4.17.51.5.5,0,0,0,0-1,37.11,37.11,0,0,1-4.87-.4l-.13,1a43.31,43.31,0,0,1,9.51,1.29l.27-1c-1.6-.34-3.17-.74-4.74-1.19l-.27,1A106.2,106.2,0,0,1,606.85,569l.27-1a8.11,8.11,0,0,1-2.86-1.06l-.5.86a28,28,0,0,1,3.07,2.05l.5-.86a21.77,21.77,0,0,0-2-1.31l-.5.86a19.19,19.19,0,0,1,4.4,3c.48.43,1.18-.27.71-.71a9,9,0,0,0-2.46-1.65c-.47-.22-1.07.39-.61.79,1.31,1.12,2.65,2.18,4.05,3.18.46.33,1-.4.61-.79-4-3.77-9.1-6-13.93-8.56a.5.5,0,0,0-.5.86,19.5,19.5,0,0,0,6,2.32l.27-1a28.72,28.72,0,0,1-5.5-1.66l-.27,1a48.74,48.74,0,0,1,5.42,1.24.5.5,0,0,0,.27-1,48.74,48.74,0,0,0-5.42-1.24.5.5,0,0,0-.27,1,28.72,28.72,0,0,0,5.5,1.66c.63.12.9-.83.27-1a18.61,18.61,0,0,1-5.8-2.22l-.5.86c4.74,2.53,9.77,4.7,13.73,8.41l.61-.79q-2-1.43-3.85-3l-.61.79a7.65,7.65,0,0,1,2.26,1.5l.71-.71a20.22,20.22,0,0,0-4.6-3.15c-.57-.29-1.07.54-.5.86a21.77,21.77,0,0,1,2,1.31c.53.38,1-.48.5-.86a28,28,0,0,0-3.07-2.05.5.5,0,0,0-.5.86,8.51,8.51,0,0,0,3.09,1.16.5.5,0,0,0,.27-1,106.2,106.2,0,0,0-11.87-3.67.5.5,0,0,0-.27,1c1.57.45,3.14.85,4.74,1.19.63.13.89-.81.27-1a44.49,44.49,0,0,0-9.77-1.32c-.55,0-.7.9-.13,1a39.22,39.22,0,0,0,5.14.44v-1a13.83,13.83,0,0,1-3.9-.48.5.5,0,0,0-.27,1Z" transform="translate(-566.45 -122.13)"/><path class="cls-2" d="M587.37,514.84a68.87,68.87,0,0,1-.6,11.23,73.08,73.08,0,0,0,0,11.57.5.5,0,0,0,1,0l.11-13.72a.5.5,0,0,0-1,0l-.11,13.72h1a73.42,73.42,0,0,1,0-11.57,69.1,69.1,0,0,0,.6-11.23c0-.64-1-.64-1,0Z" transform="translate(-566.45 -122.13)"/><path class="cls-2" d="M588.1,561.5c-.05-4-.25-8,0-11.92.27-4.33,1.08-8.58.76-12.93,0-.63-1-.65-1,0l.47,10.5.93-.25c-1.36-1.79-.66-5.23-.39-7.28a45.17,45.17,0,0,0,.51-5.66h-1a49,49,0,0,1-1.47,13.16l1,.13c.44-8.28.83-16.57-.08-24.84-.07-.62-1-.66-1,0q0,9-.58,17.91h1a185.57,185.57,0,0,0-.15-23.91l-1,.13c1.23,4.89.92,9.93,1.41,14.91.06.63,1.05.65,1,0a105.51,105.51,0,0,1,.31-20.85c.07-.64-.93-.63-1,0a105.51,105.51,0,0,0-.31,20.85h1c-.5-5.07-.19-10.2-1.45-15.17-.14-.54-1-.44-1,.13a185.57,185.57,0,0,1,.15,23.91c0,.64,1,.64,1,0q.61-8.94.58-17.91h-1c.91,8.26.52,16.56.08,24.84a.5.5,0,0,0,1,.13,50,50,0,0,0,1.51-13.43.5.5,0,0,0-1,0c0,2.67-.56,5.27-.76,7.92-.13,1.74-.33,4.07.78,5.53.27.36,1,.3.93-.25l-.47-10.5h-1c.33,4.35-.49,8.6-.76,12.93-.25,4,0,8,0,11.92a.5.5,0,0,0,1,0Z" transform="translate(-566.45 -122.13)"/><path class="cls-2" d="M587.28,488c.89,6.58.79,13.22.8,19.84,0,6.09.52,12.45-.27,18.5h1a137.69,137.69,0,0,0-.5-21.06c-.71-6.93-2.69-14.54-1.17-21.46l-1-.13-.64,39.64c0,.61.78.62,1,.13,2.32-5.6,2.09-12.42,2-18.37-.09-6.75-.71-13.49-1.33-20.21-.06-.63-1-.65-1,0q.11,11.26,1.14,22.48c.7,7.49,2.14,15,1.63,22.54h1q-.33-8.74-.67-17.48c-.23-6.13-.89-12.6.19-18.67l-1-.13c.58,11.61-2.33,23-1.74,34.65a.5.5,0,0,0,1,0,243.66,243.66,0,0,0,.6-26.27q-.24-6.32-.93-12.61c-.48-4.37-1.06-8.72.58-12.93l-1-.13c-.54,6.07.25,12.09,1.1,18.09.08.55,1,.43,1-.13a56.94,56.94,0,0,1,.56-13.58c.1-.63-.86-.9-1-.27a58.09,58.09,0,0,0-.6,13.84l1-.13c-.84-5.92-1.6-11.84-1.06-17.83.05-.6-.79-.62-1-.13-1.44,3.71-1.24,7.55-.82,11.44.48,4.46.9,8.92,1.09,13.41a241.42,241.42,0,0,1-.56,27.24h1c-.59-11.61,2.32-23,1.74-34.65,0-.53-.88-.72-1-.13-1,5.87-.48,12.05-.26,18q.35,9.22.7,18.44a.5.5,0,0,0,1,0c.51-7.55-.93-15-1.63-22.54s-1.06-15-1.14-22.48h-1c.59,6.4,1.17,12.8,1.31,19.22.13,6.16.44,13.3-2,19.09l1,.13.64-39.64a.5.5,0,0,0-1-.13c-1.48,6.74.31,14,1,20.78a138.41,138.41,0,0,1,.6,22c0,.66.92.62,1,0,.83-6.35.27-13,.27-19.44a143.25,143.25,0,0,0-.83-19.16c-.09-.63-1-.36-1,.27Z" transform="translate(-566.45 -122.13)"/><path class="cls-2" d="M588.09,452.42c-.74,13.93,2.32,27.79.86,41.7h1c-.63-6.41-1-12.84-1.13-19.28-.1-6.19.55-12.47,0-18.63a.5.5,0,0,0-1,0q-1.55,20.37-2,40.81c0,.55.89.7,1,.13,2-13-.17-26-.26-39.06l-1,.13c1.54,6.33,1.47,12.85,1.32,19.32A179.73,179.73,0,0,1,585.42,498c-.09.63.88.9,1,.27A182.28,182.28,0,0,0,588,477.55c.15-6.56.2-13.17-1.36-19.59a.5.5,0,0,0-1,.13c.09,12.93,2.3,25.91.3,38.8l1,.13q.41-20.43,2-40.81h-1c.5,6.16-.15,12.44,0,18.63.11,6.44.5,12.87,1.13,19.28a.5.5,0,0,0,1,0c1.45-13.92-1.6-27.78-.86-41.7,0-.64-1-.64-1,0Z" transform="translate(-566.45 -122.13)"/></g><g id="Layer_2" data-name="Layer 2"><path class="cls-116" d="M568.42,194.79s18.39,6.83,18.39,18.39.33,350.15.33,350.15A91.65,91.65,0,0,0,583,553.5a43.46,43.46,0,0,0-4.5-7c-1.08-1.22-5.45-6-5.45-6V213S573.28,199.64,568.42,194.79Z" transform="translate(-566.45 -122.13)"/><path class="cls-117" d="M800.15,194.79s-18.39,6.83-18.39,18.39-.33,350.15-.33,350.15a91.65,91.65,0,0,1,4.15-9.83,43.46,43.46,0,0,1,4.5-7c1.08-1.22,5.45-6,5.45-6V213S795.29,199.64,800.15,194.79Z" transform="translate(-566.45 -122.13)"/></g><g id="Layer_3" data-name="Layer 3"><path class="cls-118" d="M760.75,156H707.5c.49,12.71-12.44,18.92-23.5,19" transform="translate(-566.45 -122.13)"/></g><g id="Layer_4" data-name="Layer 4"><path class="cls-118" d="M607.75,156H661c-.49,13.21,12,18.93,23.5,19" transform="translate(-566.45 -122.13)"/><path class="cls-118" d="M607.36,155.48c0,11.57-2.25,23.63-11.55,31.43-5.83,4.89-13.41,7.28-20.93,7.76a34.73,34.73,0,0,1-4.9,0" transform="translate(-566.45 -122.13)"/><path class="cls-119" d="M569.67,195.33a.5.5,0,0,0,0-1,.5.5,0,0,0,0,1Z" transform="translate(-566.45 -122.13)"/><path class="cls-120" d="M567.42,194.08a40.37,40.37,0,0,0,4.58.33c1.17-.08-4,0-4,0l2,.29,3.52,0" transform="translate(-566.45 -122.13)"/><path class="cls-118" d="M761.17,156H707.92c.49,13.21-12,18.93-23.5,19" transform="translate(-566.45 -122.13)"/><path class="cls-118" d="M761.56,155.48c0,11.57,2.25,23.63,11.55,31.43,5.83,4.89,13.41,7.28,20.93,7.76a34.73,34.73,0,0,0,4.9,0" transform="translate(-566.45 -122.13)"/><path class="cls-119" d="M799.26,195.33a.5.5,0,0,0,0-1,.5.5,0,0,0,0,1Z" transform="translate(-566.45 -122.13)"/><path class="cls-120" d="M801.5,194.08a40.37,40.37,0,0,1-4.58.33c-1.17-.08,4,0,4,0l-2,.29-3.52,0" transform="translate(-566.45 -122.13)"/></g><g id="Layer_7" data-name="Layer 7"><path class="cls-118" d="M587.56,565.5s28.17-2.37,28.17,23.06a4.43,4.43,0,0,1-1.81,2.43c-1.25.59,7.66,6.59,17.66,16H652.5s10-.11,10,10.45l9.93,7.93H684" transform="translate(-566.45 -122.13)"/><path class="cls-118" d="M781,565.5s-28.17-2.37-28.17,23.06a4.43,4.43,0,0,0,1.81,2.43c1.25.59-7.66,6.59-17.66,16H716.06s-10-.11-10,10.45l-9.93,7.93H684.56" transform="translate(-566.45 -122.13)"/></g><g id="Layer_8" data-name="Layer 8"><polygon class="cls-121" points="118.05 522.87 106.7 511.52 118.05 495.75 128.64 511.75 118.05 522.87"/></g><g id="Layer_9" data-name="Layer 9"><circle class="cls-122" cx="118.18" cy="21.25" r="21.25"/><circle class="cls-122" cx="15.18" cy="47.37" r="7.5"/><circle class="cls-122" cx="221.3" cy="47.75" r="7.33"/><circle class="cls-122" cx="205.3" cy="458.5" r="7.38"/><circle class="cls-122" cx="29.3" cy="458.3" r="7.11"/></g></svg>