<!DOCTYPE svg PUBLIC "-//W3C//DTD SVG 20010904//EN" "http://www.w3.org/TR/2001/REC-SVG-20010904/DTD/svg10.dtd">
<svg version="1.0" xmlns="http://www.w3.org/2000/svg" width="769px" height="759px" viewBox="0 0 7690 7590" preserveAspectRatio="xMidYMid meet">
<g id="layer101" fill="#0e0f24" stroke="none">
 <path d="M3670 7489 c-1009 -42 -1975 -514 -2630 -1284 -508 -596 -796 -1256 -886 -2030 -23 -192 -23 -610 0 -800 52 -444 163 -830 350 -1220 402 -835 1125 -1506 1986 -1842 459 -180 865 -256 1365 -256 445 0 770 54 1200 197 935 313 1721 1007 2151 1901 443 923 491 1958 133 2925 -59 160 -210 470 -304 625 -300 495 -761 955 -1258 1254 -637 384 -1345 562 -2107 530z"/>
 </g>
<g id="layer102" fill="#cee9fa" stroke="none">
 <path d="M844 5958 c-378 -510 -612 -1116 -690 -1783 -23 -192 -23 -610 0 -800 52 -444 163 -830 350 -1220 402 -835 1125 -1506 1986 -1842 459 -180 865 -256 1365 -256 272 0 430 13 655 54 151 27 432 99 387 99 -3 0 -52 -11 -109 -25 -457 -109 -1041 -111 -1560 -5 -1454 298 -2620 1464 -2918 2918 -59 292 -74 446 -74 772 0 249 3 321 22 460 85 626 284 1159 618 1648 46 67 82 122 79 122 -3 0 -53 -64 -111 -142z"/>
 </g>

</svg>